<svg width="17" height="17" viewBox="0 0 17 17" fill="none" xmlns="http://www.w3.org/2000/svg">
<path d="M1 4H2.66667M2.66667 4H16M2.66667 4V14.5C2.66667 14.8978 2.84226 15.2794 3.15482 15.5607C3.46738 15.842 3.89131 16 4.33333 16H12.6667C13.1087 16 13.5326 15.842 13.8452 15.5607C14.1577 15.2794 14.3333 14.8978 14.3333 14.5V4H2.66667ZM5.16667 4V2.5C5.16667 2.10218 5.34226 1.72064 5.65482 1.43934C5.96738 1.15804 6.39131 1 6.83333 1H10.1667C10.6087 1 11.0326 1.15804 11.3452 1.43934C11.6577 1.72064 11.8333 2.10218 11.8333 2.5V4M6.83333 7.75V12.25M10.1667 7.75V12.25" stroke="#7C7C7C" stroke-linecap="round" stroke-linejoin="round"/>
</svg>
