<svg width="15" height="17" viewBox="0 0 15 17" fill="none" xmlns="http://www.w3.org/2000/svg">
<path d="M5.03722 9.6325L9.97 12.6175M9.96278 4.3825L5.03722 7.3675M14 3.25C14 4.49264 13.03 5.5 11.8333 5.5C10.6367 5.5 9.66667 4.49264 9.66667 3.25C9.66667 2.00736 10.6367 1 11.8333 1C13.03 1 14 2.00736 14 3.25ZM5.33333 8.5C5.33333 9.74264 4.36328 10.75 3.16667 10.75C1.97005 10.75 1 9.74264 1 8.5C1 7.25736 1.97005 6.25 3.16667 6.25C4.36328 6.25 5.33333 7.25736 5.33333 8.5ZM14 13.75C14 14.9926 13.03 16 11.8333 16C10.6367 16 9.66667 14.9926 9.66667 13.75C9.66667 12.5074 10.6367 11.5 11.8333 11.5C13.03 11.5 14 12.5074 14 13.75Z" stroke="#7C7C7C" stroke-linecap="round" stroke-linejoin="round"/>
</svg>
