<svg width="23" height="24" viewBox="0 0 23 24" fill="none" xmlns="http://www.w3.org/2000/svg">
<path d="M13.5183 21.9037C13.3132 22.2371 13.0188 22.5139 12.6646 22.7063C12.3104 22.8987 11.9088 23 11.5 23C11.0912 23 10.6896 22.8987 10.3354 22.7063C9.98118 22.5139 9.68678 22.2371 9.48167 21.9037M18.5 7.60117C18.5 5.85043 17.7625 4.1714 16.4497 2.93344C15.137 1.69548 13.3565 1 11.5 1C9.64348 1 7.86301 1.69548 6.55025 2.93344C5.2375 4.1714 4.5 5.85043 4.5 7.60117C4.5 15.3025 1 17.5029 1 17.5029H22C22 17.5029 18.5 15.3025 18.5 7.60117Z" stroke="white" stroke-width="2" stroke-linecap="round" stroke-linejoin="round"/>
</svg>
