<svg width="27" height="27" viewBox="0 0 27 27" fill="none" xmlns="http://www.w3.org/2000/svg">
<path d="M6.18745 9.38415C6.84615 9.30508 7.63477 9.30507 8.15442 9.62133C8.85068 10.0451 9.23415 11.1401 9.40188 11.7607C9.48131 12.0546 9.57454 12.3481 9.73012 12.6098C10.6672 14.1858 11.1694 13.6026 11.3088 13.069C11.4033 12.6175 11.5214 11.8482 11.5066 11.2533C11.4934 10.722 10.9202 10.5547 10.5852 10.1421C10.3106 9.80378 10.873 9.39879 11.3088 9.19037C11.7595 9.04671 12.841 8.8456 13.562 9.19037C14.4633 9.62133 14.4633 9.62133 14.4633 12.2071C14.4633 13.9849 15.1289 13.5558 15.6021 12.9441C15.7537 12.7482 15.9077 12.5512 16.044 12.3443C16.23 12.0619 16.4797 11.5934 16.7164 10.9142C17.0769 9.87991 17.7679 9.62133 18.0683 9.62133H20.3215C20.883 9.62133 20.9343 9.96984 20.8586 10.2597C20.8182 10.4144 20.724 10.5476 20.6284 10.6757L18.6627 13.3076C18.567 13.4357 18.4724 13.5688 18.4292 13.7227C18.338 14.0469 18.4412 14.309 18.5961 14.4978C18.7976 14.7434 19.0866 14.9048 19.3162 15.1244L20.7721 16.5167C21.0725 16.8041 21.3129 17.4649 19.8708 17.8096C18.6469 18.1023 17.5528 17.7947 16.9744 17.5193C16.7977 17.4351 16.6452 17.3106 16.5038 17.1753L15.8152 16.5167C15.5147 16.2294 14.9139 15.741 14.9139 16.0858C14.9139 16.2977 14.687 16.7374 14.4423 17.145C14.1752 17.5898 13.7604 17.9349 13.2436 17.9816C12.7695 18.0245 12.1141 18.0022 11.3088 17.8096C9.86682 17.4649 7.70379 14.5056 6.80253 13.069L5.56158 10.6955C5.27038 10.1385 5.56342 9.45905 6.18745 9.38415Z" stroke="white"/>
<path d="M23 26H4C2.34315 26 1 24.6569 1 23V4C1 2.34315 2.34315 1 4 1H23C24.6569 1 26 2.34315 26 4V23C26 24.6569 24.6569 26 23 26Z" stroke="white"/>
</svg>
