<svg width="35" height="25" viewBox="0 0 35 25" fill="none" xmlns="http://www.w3.org/2000/svg">
<path d="M33.2674 4.59671C33.0794 3.90007 32.7112 3.26489 32.1997 2.75476C31.6882 2.24463 31.0513 1.87745 30.3527 1.68996C28.4437 0.954424 9.94893 0.594062 4.58316 1.71052C3.88451 1.89809 3.24753 2.2654 2.73599 2.77568C2.22446 3.28596 1.85633 3.92131 1.66845 4.6181C0.806328 8.38873 0.741154 16.5405 1.6899 20.3958C1.8779 21.0925 2.24609 21.7277 2.75762 22.2378C3.26914 22.7479 3.90606 23.1151 4.60461 23.3026C8.38556 24.1706 26.3606 24.2924 30.3742 23.3026C31.0727 23.1151 31.7096 22.7479 32.2211 22.2378C32.7327 21.7277 33.1009 21.0925 33.2889 20.3958C34.2079 16.2879 34.2731 8.64131 33.2674 4.59671Z" stroke="white" stroke-linecap="round" stroke-linejoin="round"/>
<path d="M22.9178 12.4959L14.2991 7.56681V17.4249L22.9178 12.4959Z" stroke="white" stroke-linecap="round" stroke-linejoin="round"/>
</svg>
