<?xml version="1.0" standalone="no"?>
<!DOCTYPE svg PUBLIC "-//W3C//DTD SVG 20010904//EN"
 "http://www.w3.org/TR/2001/REC-SVG-20010904/DTD/svg10.dtd">
<svg version="1.0" xmlns="http://www.w3.org/2000/svg"
 width="28.000000pt" height="25.000000pt" viewBox="0 0 28.000000 25.000000"
 preserveAspectRatio="xMidYMid meet">

<g transform="translate(0.000000,25.000000) scale(0.100000,-0.100000)"
fill="#cd0000" stroke="none">
<path d="M30 230 c-27 -27 -35 -65 -20 -101 12 -28 115 -129 131 -129 4 0 35
26 68 57 68 66 81 99 58 149 -21 42 -59 54 -100 31 -26 -15 -31 -15 -50 -2
-29 21 -63 19 -87 -5z m92 -17 c17 -15 19 -15 36 0 23 21 66 22 86 1 9 -8 16
-32 16 -52 0 -31 -8 -44 -56 -89 -31 -29 -60 -53 -64 -53 -4 0 -33 24 -64 53
-48 45 -56 58 -56 89 0 20 7 44 16 52 20 21 63 20 86 -1z"/>
</g>
</svg>
