<svg width="20" height="20" viewBox="0 0 20 20" fill="none" xmlns="http://www.w3.org/2000/svg">
<path d="M1 18.3965V3.01232C1 2.47862 1.21201 1.96678 1.5894 1.5894C1.96678 1.21201 2.47862 1 3.01232 1H17.0986C17.6323 1 18.1441 1.21201 18.5215 1.5894C18.8989 1.96678 19.1109 2.47862 19.1109 3.01232V13.0739C19.1109 13.6076 18.8989 14.1195 18.5215 14.4969C18.1441 14.8742 17.6323 15.0863 17.0986 15.0863H5.99156C5.68995 15.0863 5.3922 15.1541 5.12034 15.2847C4.84848 15.4154 4.60946 15.6054 4.42095 15.8409L2.07559 18.7728C1.99753 18.8706 1.89101 18.9418 1.77076 18.9764C1.6505 19.0111 1.52246 19.0075 1.40434 18.9661C1.28621 18.9248 1.18385 18.8478 1.11142 18.7457C1.03898 18.6437 1.00005 18.5217 1 18.3965V18.3965Z" stroke="white" stroke-width="1.5"/>
</svg>
