<svg width="40" height="40" viewBox="0 0 40 40" fill="none" xmlns="http://www.w3.org/2000/svg">
<path d="M31.7734 19.5542H8.22656C7.57812 19.5542 7.05469 20.0776 7.05469 20.7261C7.05469 21.3745 7.57812 21.8979 8.22656 21.8979H31.7734C32.4219 21.8979 32.9453 21.3745 32.9453 20.7261C32.9453 20.0776 32.4141 19.5542 31.7734 19.5542Z" fill="#FFD900"/>
<path d="M31.7734 28.4927H8.22656C7.57812 28.4927 7.05469 29.0161 7.05469 29.6646C7.05469 30.313 7.57812 30.8364 8.22656 30.8364H31.7734C32.4219 30.8364 32.9453 30.313 32.9453 29.6646C32.9453 29.0161 32.4141 28.4927 31.7734 28.4927Z" fill="#FFD900"/>
<path d="M31.7734 10.4849H8.22656C7.57812 10.4849 7.05469 11.0083 7.05469 11.6567C7.05469 12.3052 7.57812 12.8286 8.22656 12.8286H31.7734C32.4219 12.8286 32.9453 12.3052 32.9453 11.6567C32.9453 11.0083 32.4141 10.4849 31.7734 10.4849Z" fill="#FFD900"/>
<path d="M9.39844 29.6646V11.6567C9.39844 11.0083 8.875 10.4849 8.22656 10.4849C7.57812 10.4849 7.05469 11.0083 7.05469 11.6567V29.6646C7.05469 30.313 7.57812 30.8364 8.22656 30.8364C8.875 30.8364 9.39844 30.3052 9.39844 29.6646Z" fill="#FFD900"/>
<path d="M25.1562 29.6646V11.6567C25.1562 11.0083 24.6328 10.4849 23.9844 10.4849C23.3359 10.4849 22.8125 11.0083 22.8125 11.6567V29.6646C22.8125 30.313 23.3359 30.8364 23.9844 30.8364C24.6328 30.8364 25.1562 30.3052 25.1562 29.6646Z" fill="#FFD900"/>
<path d="M17.3828 29.6646V11.6567C17.3828 11.0083 16.8594 10.4849 16.2109 10.4849C15.5625 10.4849 15.0391 11.0083 15.0391 11.6567V29.6646C15.0391 30.313 15.5625 30.8364 16.2109 30.8364C16.8594 30.8364 17.3828 30.3052 17.3828 29.6646Z" fill="#FFD900"/>
<path d="M38.4375 25.0942C39.0859 25.0942 39.6094 24.5708 39.6094 23.9224V9.62549C39.6094 6.39111 36.9844 3.76611 33.75 3.76611H33.1797H31.0312H28.625H21.2031H18.7969H11.375H8.96875H6.25C3.01562 3.76611 0.390625 6.39111 0.390625 9.62549V31.7505C0.390625 34.9849 3.01562 37.6099 6.25 37.6099H33.75C36.9844 37.6099 39.6094 34.9849 39.6094 31.7505V31.7427C39.6094 31.0942 39.0859 30.5708 38.4375 30.5708C37.7891 30.5708 37.2656 31.0942 37.2656 31.7427V31.7583C37.2656 33.6958 35.6875 35.2739 33.75 35.2739H6.25C4.3125 35.2739 2.73438 33.6958 2.73438 31.7583V9.62549C2.73438 7.81299 4.11719 6.31299 5.88281 6.12549V6.09424H34.1094V6.12549C35.875 6.30518 37.2578 7.80518 37.2578 9.62549V23.9224C37.2656 24.5708 37.7891 25.0942 38.4375 25.0942Z" fill="#FFD900"/>
<path d="M32.9453 24.3997V11.6888C32.9453 11.056 32.4609 10.5091 31.8281 10.4857C31.1562 10.4544 30.6016 10.9935 30.6016 11.6575V24.3919C30.6016 25.0404 31.125 25.5638 31.7734 25.5638C32.4219 25.5716 32.9453 25.0404 32.9453 24.3997Z" fill="#FFD900"/>
</svg>
