<svg width="40" height="40" viewBox="0 0 40 40" fill="none" xmlns="http://www.w3.org/2000/svg">
<path d="M27.3047 30.1094H12.6953C12.0469 30.1094 11.5234 30.6328 11.5234 31.2812C11.5234 31.9297 12.0469 32.4531 12.6953 32.4531H27.3047C27.9531 32.4531 28.4766 31.9297 28.4766 31.2812C28.4766 30.6328 27.9531 30.1094 27.3047 30.1094Z" fill="#FFD900"/>
<path d="M27.3047 23.8052H12.6953C12.0469 23.8052 11.5234 24.3286 11.5234 24.9771C11.5234 25.6255 12.0469 26.1489 12.6953 26.1489H27.3047C27.9531 26.1489 28.4766 25.6255 28.4766 24.9771C28.4766 24.3286 27.9531 23.8052 27.3047 23.8052Z" fill="#FFD900"/>
<path d="M15.3437 16.9766L17.8828 19.5156C18.1016 19.7344 18.3984 19.8594 18.7109 19.8594C19.0234 19.8594 19.3203 19.7344 19.5391 19.5156L24.6641 14.3828C25.1172 13.9219 25.1172 13.1797 24.6641 12.7266C24.4453 12.5078 24.1484 12.3828 23.8359 12.3828C23.5234 12.3828 23.2266 12.5078 23.0078 12.7266L18.7188 17.0234L17.0156 15.3125C16.7891 15.0859 16.4844 14.9688 16.1875 14.9688C15.8906 14.9688 15.5859 15.0859 15.3594 15.3125C15.1406 15.5312 15.0156 15.8281 15.0156 16.1406C15.0156 16.4531 15.1172 16.7578 15.3437 16.9766Z" fill="#FFD900"/>
<path d="M33.8203 32.5781C33.1719 32.5781 32.6484 33.1016 32.6484 33.75C32.6484 35.6875 31.0703 37.2656 29.1328 37.2656H10.8672C8.92969 37.2656 7.35156 35.6875 7.35156 33.75V10.0391C7.35156 8.10156 8.92969 6.52344 10.8672 6.52344H14.7891V7.86719C14.7891 8.51562 15.3125 9.03906 15.9609 9.03906H24.0391C24.6875 9.03906 25.2109 8.51562 25.2109 7.86719V6.52344H29.1328C31.0703 6.52344 32.6484 8.10156 32.6484 10.0391V25.9609C32.6484 26.6094 33.1719 27.1328 33.8203 27.1328C34.4688 27.1328 34.9922 26.6094 34.9922 25.9609V10.0391C34.9922 6.80469 32.3672 4.17969 29.1328 4.17969H25.2109V1.5625C25.2109 0.914062 24.6875 0.390625 24.0391 0.390625H15.9609C15.3125 0.390625 14.7891 0.914062 14.7891 1.5625V4.17969H10.8672C7.63281 4.17969 5.00781 6.80469 5.00781 10.0391V33.75C5.00781 36.9844 7.63281 39.6094 10.8672 39.6094H29.125C32.3594 39.6094 34.9844 36.9844 34.9844 33.75C34.9922 33.1016 34.4609 32.5781 33.8203 32.5781ZM17.1328 2.73438H22.8672V6.6875H17.1328V2.73438Z" fill="#FFD900"/>
</svg>
