<svg width="248" height="372" viewBox="0 0 248 372" fill="none" xmlns="http://www.w3.org/2000/svg">
<g opacity="0.5">
<path d="M73 -25H49L40 -7L49 11H73L82 -7L73 -25Z" stroke="#44464F"/>
<path d="M106 -7H82L73 11L82 29H106L115 11L106 -7Z" stroke="#44464F"/>
<path d="M73 11H49L40 29L49 47H73L82 29L73 11Z" stroke="#44464F"/>
<path d="M7 -25H-17L-26 -7L-17 11H7L16 -7L7 -25Z" stroke="#44464F"/>
<path d="M40 -7H16L7 11L16 29H40L49 11L40 -7Z" stroke="#44464F"/>
<path d="M7 11H-17L-26 29L-17 47H7L16 29L7 11Z" stroke="#44464F"/>
<path d="M73 47H49L40 65L49 83H73L82 65L73 47Z" stroke="#44464F"/>
<path d="M106 65H82L73 83L82 101H106L115 83L106 65Z" stroke="#44464F"/>
<path d="M73 83H49L40 101L49 119H73L82 101L73 83Z" stroke="#44464F"/>
<path d="M7 47H-17L-26 65L-17 83H7L16 65L7 47Z" stroke="#44464F"/>
<path d="M40 65H16L7 83L16 101H40L49 83L40 65Z" stroke="#44464F"/>
<path d="M40 101H16L7 119L16 137H40L49 119L40 101Z" stroke="#44464F"/>
<path d="M40 29H16L7 47L16 65H40L49 47L40 29Z" stroke="#44464F"/>
<path d="M7 83H-17L-26 101L-17 119H7L16 101L7 83Z" stroke="#44464F"/>
<path d="M205 -25H181L172 -7L181 11H205L214 -7L205 -25Z" stroke="#44464F"/>
<path d="M106 281H82L73 299L82 317H106L115 299L106 281Z" stroke="#44464F"/>
<path d="M139 299H115L106 317L115 335H139L148 317L139 299Z" stroke="#44464F"/>
<path d="M205 11H181L172 29L181 47H205L214 29L205 11Z" stroke="#44464F"/>
<path d="M139 -25H115L106 -7L115 11H139L148 -7L139 -25Z" stroke="#44464F"/>
<path d="M172 317H148L139 335L148 353H172L181 335L172 317Z" stroke="#44464F"/>
<path d="M172 -7H148L139 11L148 29H172L181 11L172 -7Z" stroke="#44464F"/>
<path d="M73 299H49L40 317L49 335H73L82 317L73 299Z" stroke="#44464F"/>
<path d="M139 11H115L106 29L115 47H139L148 29L139 11Z" stroke="#44464F"/>
<path d="M205 47H181L172 65L181 83H205L214 65L205 47Z" stroke="#44464F"/>
<path d="M238 65H214L205 83L214 101H238L247 83L238 65Z" stroke="#44464F"/>
<path d="M205 83H181L172 101L181 119H205L214 101L205 83Z" stroke="#44464F"/>
<path d="M139 47H115L106 65L115 83H139L148 65L139 47Z" stroke="#44464F"/>
<path d="M106 29H82L73 47L82 65H106L115 47L106 29Z" stroke="#44464F"/>
<path d="M172 65H148L139 83L148 101H172L181 83L172 65Z" stroke="#44464F"/>
<path d="M172 29H148L139 47L148 65H172L181 47L172 29Z" stroke="#44464F"/>
<path d="M73 155H49L40 173L49 191H73L82 173L73 155Z" stroke="#44464F"/>
<path d="M73 119H49L40 137L49 155H73L82 137L73 119Z" stroke="#44464F"/>
<path d="M106 173H82L73 191L82 209H106L115 191L106 173Z" stroke="#44464F"/>
<path d="M73 191H49L40 209L49 227H73L82 209L73 191Z" stroke="#44464F"/>
<path d="M7 155H-17L-26 173L-17 191H7L16 173L7 155Z" stroke="#44464F"/>
<path d="M7 119H-17L-26 137L-17 155H7L16 137L7 119Z" stroke="#44464F"/>
<path d="M40 173H16L7 191L16 209H40L49 191L40 173Z" stroke="#44464F"/>
<path d="M40 137H16L7 155L16 173H40L49 155L40 137Z" stroke="#44464F"/>
<path d="M7 191H-17L-26 209L-17 227H7L16 209L7 191Z" stroke="#44464F"/>
<path d="M73 227H49L40 245L49 263H73L82 245L73 227Z" stroke="#44464F"/>
<path d="M106 245H82L73 263L82 281H106L115 263L106 245Z" stroke="#44464F"/>
<path d="M73 263H49L40 281L49 299H73L82 281L73 263Z" stroke="#44464F"/>
<path d="M7 227H-17L-26 245L-17 263H7L16 245L7 227Z" stroke="#44464F"/>
<path d="M40 245H16L7 263L16 281H40L49 263L40 245Z" stroke="#44464F"/>
<path d="M40 281H16L7 299L16 317H40L49 299L40 281Z" stroke="#44464F"/>
<path d="M40 209H16L7 227L16 245H40L49 227L40 209Z" stroke="#44464F"/>
<path d="M7 263H-17L-26 281L-17 299H7L16 281L7 263Z" stroke="#44464F"/>
<path d="M205 155H181L172 173L181 191H205L214 173L205 155Z" stroke="#44464F"/>
<path d="M205 119H181L172 137L181 155H205L214 137L205 119Z" stroke="#44464F"/>
<path d="M238 173H214L205 191L214 209H238L247 191L238 173Z" stroke="#44464F"/>
<path d="M205 191H181L172 209L181 227H205L214 209L205 191Z" stroke="#44464F"/>
<path d="M139 155H115L106 173L115 191H139L148 173L139 155Z" stroke="#44464F"/>
<path d="M106 137H82L73 155L82 173H106L115 155L106 137Z" stroke="#44464F"/>
<path d="M172 173H148L139 191L148 209H172L181 191L172 173Z" stroke="#44464F"/>
<path d="M205 227H181L172 245L181 263H205L214 245L205 227Z" stroke="#44464F"/>
<path d="M139 191H115L106 209L115 227H139L148 209L139 191Z" stroke="#44464F"/>
<path d="M139 263H115L106 281L115 299H139L148 281L139 263Z" stroke="#44464F"/>
<path d="M73 335H49L40 353L49 371H73L82 353L73 335Z" stroke="#44464F"/>
<path d="M139 227H115L106 245L115 263H139L148 245L139 227Z" stroke="#44464F"/>
<path d="M106 209H82L73 227L82 245H106L115 227L106 209Z" stroke="#44464F"/>
<path d="M172 245H148L139 263L148 281H172L181 263L172 245Z" stroke="#44464F"/>
<path d="M172 209H148L139 227L148 245H172L181 227L172 209Z" stroke="#44464F"/>
<path d="M7 299H-17L-26 317L-17 335H7L16 317L7 299Z" stroke="#44464F"/>
<path d="M106 101H82L73 119L82 137H106L115 119L106 101Z" stroke="#44464F"/>
<path d="M139 83H115L106 101L115 119H139L148 101L139 83Z" stroke="#44464F"/>
<path d="M139 119H115L106 137L115 155H139L148 137L139 119Z" stroke="#44464F"/>
<path d="M172 137H148L139 155L148 173H172L181 155L172 137Z" stroke="#44464F"/>
<path d="M238 137H214L205 155L214 173H238L247 155L238 137Z" stroke="#44464F"/>
<path d="M172 281H148L139 299L148 317H172L181 299L172 281Z" stroke="#44464F"/>
<path d="M106 317H82L73 335L82 353H106L115 335L106 317Z" stroke="#44464F"/>
</g>
</svg>
