<svg width="255" height="342" viewBox="0 0 255 342" fill="none" xmlns="http://www.w3.org/2000/svg">
<path d="M231 18H207L198 36L207 54H231L240 36L231 18Z" fill="#2E3038"/>
<path d="M99 90H75L66 108L75 126H99L108 108L99 90Z" fill="#2E3038"/>
<path d="M99 54H75L66 72L75 90H99L108 72L99 54Z" fill="#2E3038"/>
<path d="M264 0H240L231 18L240 36H264L273 18L264 0Z" fill="#2E3038"/>
<path d="M231 54H207L198 72L207 90H231L240 72L231 54Z" fill="#2E3038"/>
<path d="M231 90H207L198 108L207 126H231L240 108L231 90Z" fill="#2E3038"/>
<path d="M198 72H174L165 90L174 108H198L207 90L198 72Z" fill="#2E3038"/>
<path d="M264 108H240L231 126L240 144H264L273 126L264 108Z" fill="#2E3038"/>
<path d="M264 144H240L231 162L240 180H264L273 162L264 144Z" fill="#2E3038"/>
<path d="M264 72H240L231 90L240 108H264L273 90L264 72Z" fill="#2E3038"/>
<path d="M231 126H207L198 144L207 162H231L240 144L231 126Z" fill="#2E3038"/>
<path d="M33 54H9L0 72L9 90H33L42 72L33 54Z" fill="#2E3038"/>
<path d="M231 198H207L198 216L207 234H231L240 216L231 198Z" fill="#2E3038"/>
<path d="M198 180H174L165 198L174 216H198L207 198L198 180Z" fill="#2E3038"/>
<path d="M264 216H240L231 234L240 252H264L273 234L264 216Z" fill="#2E3038"/>
<path d="M264 180H240L231 198L240 216H264L273 198L264 180Z" fill="#2E3038"/>
<path d="M198 144H174L165 162L174 180H198L207 162L198 144Z" fill="#2E3038"/>
<path d="M231 270H207L198 288L207 306H231L240 288L231 270Z" fill="#2E3038"/>
<path d="M231 306H207L198 324L207 342H231L240 324L231 306Z" fill="#2E3038"/>
<path d="M165 54H141L132 72L141 90H165L174 72L165 54Z" fill="#2E3038"/>
<path d="M165 126H141L132 144L141 162H165L174 144L165 126Z" fill="#44464F"/>
<path d="M165 162H141L132 180L141 198H165L174 180L165 162Z" fill="#2E3038"/>
</svg>
