<svg width="296" height="339" viewBox="0 0 296 339" fill="none" xmlns="http://www.w3.org/2000/svg">
<path d="M324 165L324 141L306 132L288 141L288 165L306 174L324 165Z" fill="#2E3038"/>
<path d="M252 33L252 9L234 7.86805e-07L216 9L216 33L234 42L252 33Z" fill="#2E3038"/>
<path d="M288 33L288 9L270 7.86805e-07L252 9L252 33L270 42L288 33Z" fill="#2E3038"/>
<path d="M306 198L306 174L288 165L270 174L270 198L288 207L306 198Z" fill="#2E3038"/>
<path d="M288 165L288 141L270 132L252 141L252 165L270 174L288 165Z" fill="#2E3038"/>
<path d="M252 165L252 141L234 132L216 141L216 165L234 174L252 165Z" fill="#2E3038"/>
<path d="M270 132L270 108L252 99L234 108L234 132L252 141L270 132Z" fill="#2E3038"/>
<path d="M198 198L198 174L180 165L162 174L162 198L180 207L198 198Z" fill="#2E3038"/>
<path d="M270 198L270 174L252 165L234 174L234 198L252 207L270 198Z" fill="#2E3038"/>
<path d="M216 165L216 141L198 132L180 141L180 165L198 174L216 165Z" fill="#2E3038"/>
<path d="M306 66L306 42L288 33L270 42L270 66L288 75L306 66Z" fill="#2E3038"/>
<path d="M144 165L144 141L126 132L108 141L108 165L126 174L144 165Z" fill="#2E3038"/>
<path d="M162 132L162 108L144 99L126 108L126 132L144 141L162 132Z" fill="#2E3038"/>
<path d="M180 165L180 141L162 132L144 141L144 165L162 174L180 165Z" fill="#4C5058"/>
<path d="M126 198L126 174L108 165L90 174L90 198L108 207L126 198Z" fill="#2E3038"/>
<path d="M162 198L162 174L144 165L126 174L126 198L144 207L162 198Z" fill="#2E3038"/>
<path d="M198 132L198 108L180 99L162 108L162 132L180 141L198 132Z" fill="#2E3038"/>
<path d="M72 165L72 141L54 132L36 141L36 165L54 174L72 165Z" fill="#2E3038"/>
<path d="M90 132L90 108L72 99L54 108L54 132L72 141L90 132Z" fill="#2E3038"/>
<path d="M36 165L36 141L18 132L-1.44248e-06 141L-3.93402e-07 165L18 174L36 165Z" fill="#2E3038"/>
<path d="M288 99L288 75L270 66L252 75L252 99L270 108L288 99Z" fill="#2E3038"/>
<path d="M216 99L216 75L198 66L180 75L180 99L198 108L216 99Z" fill="#2E3038"/>
<path d="M90 330L90 306L72 297L54 306L54 330L72 339L90 330Z" fill="#2E3038"/>
<path d="M180 99L180 75L162 66L144 75L144 99L162 108L180 99Z" fill="#2E3038"/>
</svg>
