<svg width="290" height="107" viewBox="0 0 290 107" fill="none" xmlns="http://www.w3.org/2000/svg">
<path d="M5.59509 51.7608C4.22004 51.7591 2.90177 51.2122 1.92946 50.2399C0.957154 49.2676 0.410194 47.9493 0.408569 46.5742V6.11773C0.408569 4.86921 0.904544 3.67181 1.78739 2.78897C2.67023 1.90613 3.86762 1.41016 5.11615 1.41016H45.5726C46.9477 1.41178 48.266 1.95874 49.2383 2.93105C50.2106 3.90336 50.7575 5.22162 50.7592 6.59668V46.5742C50.7575 47.9493 50.2106 49.2676 49.2383 50.2399C48.266 51.2122 46.9477 51.7591 45.5726 51.7608H5.59509Z" fill="#FFD900"/>
<path d="M45.5734 1.81871C46.8399 1.82033 48.0541 2.32416 48.9496 3.2197C49.8451 4.11524 50.349 5.32939 50.3506 6.59587V46.5734C50.349 47.8399 49.8451 49.0541 48.9496 49.9496C48.0541 50.8451 46.8399 51.349 45.5734 51.3506H5.59587C4.32939 51.349 3.11525 50.8451 2.21971 49.9496C1.32417 49.0541 0.820334 47.8399 0.818709 46.5734V6.11693C0.818709 4.97697 1.27156 3.8837 2.07763 3.07763C2.8837 2.27156 3.97697 1.81871 5.11693 1.81871H45.5734ZM45.5734 1H5.11693C3.75984 1 2.45832 1.5391 1.49871 2.49871C0.539103 3.45832 0 4.75984 0 6.11693V46.5734C0 48.0575 0.589562 49.4809 1.63899 50.5303C2.68842 51.5797 4.11176 52.1693 5.59587 52.1693H45.5734C47.0575 52.1693 48.4809 51.5797 49.5303 50.5303C50.5797 49.4809 51.1693 48.0575 51.1693 46.5734V6.59587C51.1693 5.11176 50.5797 3.68842 49.5303 2.63899C48.4809 1.58956 47.0575 1 45.5734 1Z" fill="black"/>
<path d="M121.272 1.10254H118.815V105.897H121.272V1.10254Z" fill="#FFD900"/>
<path d="M121.169 105.795H118.918V1.20468H121.169V105.795ZM121.374 1H118.713V105.999H121.374V1Z" fill="black" stroke="black" stroke-width="0.4"/>
<path d="M149.881 42.2227H155.337V63.9696H149.881V61.6691C148.955 62.5877 147.868 63.3292 146.675 63.857C145.572 64.3093 144.389 64.5368 143.196 64.5263C140.388 64.5263 137.959 63.4347 135.909 61.2515C133.86 59.0683 132.837 56.3597 132.839 53.1258C132.839 49.7678 133.831 47.0162 135.813 44.8712C137.796 42.7262 140.205 41.6537 143.04 41.6537C144.303 41.6449 145.553 41.8965 146.714 42.3925C147.907 42.9188 148.985 43.6724 149.889 44.6113L149.881 42.2227ZM144.15 46.701C143.361 46.6803 142.578 46.8289 141.852 47.1368C141.126 47.4447 140.475 47.9047 139.942 48.4858C138.825 49.6784 138.267 51.2073 138.267 53.0726C138.267 54.9379 138.835 56.4839 139.97 57.7106C140.498 58.297 141.146 58.7636 141.869 59.0788C142.592 59.3941 143.375 59.5508 144.164 59.5384C144.961 59.5596 145.753 59.411 146.488 59.1026C147.223 58.7942 147.884 58.3329 148.427 57.7495C149.556 56.5569 150.12 54.9945 150.12 53.0624C150.12 51.1698 149.556 49.6374 148.427 48.4653C147.299 47.2932 145.871 46.7044 144.144 46.699L144.15 46.701Z" fill="white"/>
<path d="M160.262 33.8253H165.719V63.9681H160.262V33.8253Z" fill="white"/>
<path d="M170.069 33.8253H175.526V63.9681H170.069V33.8253Z" fill="white"/>
<path d="M189.53 42.2227H194.873L199.246 54.5955L203.954 42.2227H207.229L211.84 54.4543L216.218 42.2207H221.593L213.658 63.9677H210.203L205.557 51.5765L200.788 63.9697H197.37L189.53 42.2227Z" fill="white"/>
<path d="M246.462 54.6724H228.933C229.186 56.2184 229.862 57.4464 230.962 58.3566C232.061 59.2667 233.464 59.7231 235.17 59.7259C236.145 59.7397 237.112 59.5575 238.015 59.1901C238.918 58.8227 239.738 58.2775 240.426 57.587L245.023 59.7422C243.982 61.2804 242.565 62.5257 240.905 63.3589C239.306 64.138 237.407 64.5276 235.209 64.5276C231.797 64.5276 229.019 63.4517 226.874 61.2998C224.729 59.148 223.657 56.4531 223.657 53.2151C223.657 49.8966 224.726 47.1416 226.864 44.9502C229.002 42.7588 231.684 41.6631 234.91 41.6631C238.335 41.6631 241.12 42.7588 243.265 44.9502C245.41 47.1416 246.482 50.0364 246.482 53.6347L246.462 54.6724ZM241.005 50.3741C240.653 49.1736 239.9 48.1298 238.872 47.4166C237.797 46.6534 236.506 46.2539 235.188 46.2765C233.749 46.2503 232.342 46.7 231.185 47.5557C230.464 48.0893 229.797 49.0287 229.183 50.3741H241.005Z" fill="white"/>
<path d="M133.379 95.8966H135.248L136.779 100.228L138.416 95.8966H139.56L141.177 100.178L142.71 95.8966H144.591L141.814 103.509H140.612L138.989 99.1714L137.317 103.509H136.122L133.379 95.8966Z" fill="white"/>
<path d="M153.303 100.257H147.163C147.231 100.76 147.484 101.221 147.873 101.548C148.29 101.879 148.813 102.049 149.345 102.027C149.686 102.032 150.025 101.969 150.342 101.84C150.658 101.711 150.946 101.52 151.187 101.278L152.795 102.033C152.433 102.569 151.94 103.004 151.363 103.296C150.738 103.583 150.056 103.723 149.369 103.705C148.175 103.705 147.203 103.329 146.453 102.576C146.082 102.205 145.791 101.763 145.597 101.277C145.404 100.79 145.312 100.269 145.327 99.745C145.311 99.2122 145.402 98.6816 145.595 98.1847C145.788 97.6879 146.079 97.235 146.45 96.8529C146.814 96.4761 147.253 96.1793 147.738 95.9812C148.222 95.7832 148.743 95.6883 149.267 95.7026C150.465 95.7026 151.44 96.086 152.192 96.8529C152.944 97.6197 153.319 98.6329 153.317 99.8923L153.303 100.257ZM151.393 98.7523C151.27 98.3318 151.006 97.9662 150.646 97.7166C150.269 97.4486 149.816 97.3087 149.353 97.3175C148.849 97.3083 148.356 97.4658 147.951 97.7657C147.64 98.0322 147.4 98.371 147.251 98.7523H151.393Z" fill="white"/>
<path d="M154.643 92.9583H156.553V103.507H154.643V92.9583Z" fill="white"/>
<path d="M165.739 97.4359L164.149 98.3099C163.901 98.0344 163.599 97.8129 163.262 97.6591C162.936 97.5316 162.589 97.4697 162.239 97.4769C161.922 97.463 161.606 97.5123 161.308 97.622C161.01 97.7316 160.737 97.8994 160.505 98.1155C160.287 98.3271 160.115 98.5822 160.001 98.8642C159.887 99.1462 159.834 99.4489 159.844 99.7529C159.833 100.047 159.884 100.34 159.994 100.614C160.104 100.887 160.27 101.134 160.481 101.339C160.705 101.547 160.969 101.709 161.256 101.814C161.544 101.92 161.849 101.967 162.155 101.953C163.009 101.953 163.674 101.662 164.151 101.079L165.657 102.103C164.838 103.164 163.687 103.695 162.202 103.695C160.863 103.695 159.816 103.299 159.058 102.506C158.623 102.067 158.297 101.533 158.106 100.946C157.915 100.358 157.864 99.7346 157.957 99.124C158.05 98.5135 158.285 97.9333 158.642 97.4297C159 96.9262 159.47 96.5133 160.016 96.2243C160.698 95.8642 161.46 95.6812 162.231 95.6921C162.936 95.6808 163.633 95.8357 164.267 96.1444C164.861 96.4415 165.367 96.8862 165.739 97.4359Z" fill="white"/>
<path d="M171.034 95.7012C171.745 95.6991 172.444 95.8848 173.06 96.2396C173.672 96.5844 174.182 97.0864 174.535 97.6937C174.889 98.301 175.074 98.9917 175.072 99.6945C175.075 100.401 174.89 101.096 174.536 101.709C174.192 102.321 173.687 102.827 173.076 103.174C172.456 103.527 171.754 103.709 171.04 103.702C170.519 103.71 170.002 103.612 169.521 103.412C169.04 103.212 168.605 102.915 168.244 102.54C167.864 102.153 167.566 101.695 167.367 101.191C167.168 100.687 167.073 100.148 167.087 99.6065C167.101 99.065 167.224 98.5318 167.448 98.0388C167.673 97.5458 167.994 97.103 168.393 96.7369C169.108 96.0658 170.053 95.695 171.034 95.7012ZM171.064 97.4983C170.788 97.4908 170.513 97.5416 170.258 97.6474C170.003 97.7532 169.773 97.9116 169.583 98.1123C169.384 98.3243 169.23 98.5735 169.129 98.8454C169.027 99.1172 168.98 99.4065 168.991 99.6966C168.965 100.289 169.176 100.868 169.576 101.305C169.766 101.507 169.996 101.665 170.252 101.771C170.507 101.877 170.782 101.927 171.058 101.919C171.336 101.928 171.613 101.877 171.87 101.771C172.127 101.665 172.359 101.507 172.55 101.305C172.932 100.862 173.143 100.296 173.145 99.7107C173.147 99.1253 172.94 98.5584 172.561 98.1123C172.369 97.9107 172.137 97.7518 171.879 97.646C171.622 97.5402 171.345 97.4898 171.066 97.4983H171.064Z" fill="white"/>
<path d="M176.619 95.8951H178.528V96.7691C178.831 96.4278 179.202 96.1538 179.617 95.9647C180.029 95.7849 180.474 95.6942 180.923 95.6986C181.376 95.6928 181.822 95.814 182.21 96.0487C182.607 96.2977 182.926 96.652 183.133 97.072C183.415 96.6433 183.799 96.2915 184.251 96.0487C184.696 95.8145 185.193 95.6942 185.696 95.6986C186.2 95.6875 186.696 95.8188 187.129 96.0773C187.519 96.3063 187.829 96.6511 188.015 97.0638C188.195 97.4732 188.285 98.1329 188.285 99.0431V103.507H186.361V99.653C186.361 98.7906 186.254 98.2066 186.04 97.901C185.931 97.7489 185.785 97.6271 185.616 97.5469C185.447 97.4667 185.26 97.4308 185.074 97.4425C184.758 97.439 184.451 97.5373 184.196 97.7229C183.931 97.9176 183.73 98.187 183.618 98.4966C183.468 99.0105 183.404 99.5459 183.43 100.081V103.515H181.506V99.8311C181.527 99.3331 181.476 98.8347 181.355 98.3513C181.279 98.0824 181.121 97.8441 180.902 97.6697C180.691 97.5174 180.435 97.439 180.174 97.4466C179.862 97.4441 179.558 97.5432 179.308 97.729C179.04 97.9302 178.837 98.2066 178.727 98.5232C178.574 99.0451 178.509 99.5888 178.534 100.132V103.517H176.625L176.619 95.8951Z" fill="white"/>
<path d="M197.718 100.257H191.578C191.646 100.76 191.899 101.221 192.288 101.548C192.706 101.879 193.228 102.049 193.76 102.027C194.102 102.032 194.441 101.969 194.757 101.84C195.074 101.711 195.361 101.52 195.602 101.278L197.211 102.033C196.849 102.569 196.356 103.004 195.778 103.296C195.154 103.583 194.472 103.723 193.785 103.705C192.591 103.705 191.618 103.329 190.868 102.576C190.497 102.205 190.206 101.763 190.013 101.277C189.819 100.79 189.727 100.269 189.742 99.745C189.726 99.2122 189.817 98.6816 190.01 98.1847C190.203 97.6879 190.494 97.235 190.866 96.8529C191.23 96.4761 191.668 96.1793 192.153 95.9812C192.638 95.7832 193.159 95.6883 193.682 95.7026C194.88 95.7026 195.855 96.086 196.607 96.8529C197.359 97.6197 197.734 98.6329 197.733 99.8923L197.718 100.257ZM195.809 98.7523C195.686 98.3318 195.422 97.9662 195.062 97.7166C194.684 97.4486 194.231 97.3087 193.768 97.3175C193.264 97.3083 192.771 97.4658 192.366 97.7657C192.055 98.0322 191.815 98.371 191.666 98.7523H195.809Z" fill="white"/>
<path d="M203.509 93.0928H205.419V95.8989H206.553V97.5363H205.419V103.505H203.509V97.5425H202.529V95.905H203.509V93.0928Z" fill="white"/>
<path d="M211.148 95.7012C211.859 95.6991 212.559 95.8848 213.175 96.2395C213.787 96.5844 214.296 97.0864 214.65 97.6937C215.004 98.301 215.189 98.9917 215.187 99.6945C215.189 100.401 215.004 101.096 214.65 101.709C214.306 102.321 213.802 102.827 213.191 103.174C212.571 103.527 211.868 103.709 211.155 103.702C210.634 103.71 210.117 103.611 209.637 103.411C209.156 103.211 208.722 102.914 208.361 102.539C207.981 102.153 207.683 101.695 207.484 101.191C207.285 100.687 207.19 100.148 207.204 99.6065C207.218 99.065 207.341 98.5318 207.565 98.0388C207.789 97.5458 208.111 97.103 208.51 96.7369C209.224 96.0662 210.169 95.6955 211.148 95.7012ZM211.179 97.4983C210.903 97.4908 210.628 97.5416 210.373 97.6474C210.117 97.7532 209.887 97.9116 209.697 98.1123C209.499 98.3243 209.345 98.5735 209.243 98.8453C209.142 99.1172 209.095 99.4065 209.106 99.6965C209.08 100.289 209.291 100.868 209.691 101.305C209.881 101.507 210.111 101.665 210.366 101.771C210.622 101.877 210.897 101.927 211.173 101.919C211.451 101.928 211.727 101.877 211.984 101.771C212.242 101.665 212.473 101.507 212.665 101.305C213.047 100.862 213.258 100.296 213.26 99.7107C213.262 99.1253 213.054 98.5584 212.675 98.1123C212.483 97.9104 212.251 97.7513 211.993 97.6455C211.735 97.5397 211.458 97.4895 211.179 97.4983Z" fill="white"/>
<path d="M228.204 97.4359L226.614 98.3099C226.366 98.0344 226.065 97.8129 225.728 97.6591C225.402 97.5316 225.054 97.4697 224.704 97.4769C224.387 97.463 224.071 97.5123 223.773 97.622C223.476 97.7316 223.203 97.8994 222.971 98.1155C222.752 98.3271 222.581 98.5822 222.467 98.8642C222.353 99.1462 222.299 99.4489 222.31 99.7529C222.299 100.047 222.35 100.34 222.46 100.614C222.569 100.887 222.735 101.134 222.946 101.339C223.171 101.547 223.434 101.709 223.722 101.814C224.009 101.92 224.315 101.967 224.62 101.953C225.475 101.953 226.14 101.662 226.616 101.079L228.122 102.103C227.304 103.164 226.152 103.695 224.668 103.695C223.329 103.695 222.281 103.299 221.524 102.506C221.089 102.067 220.763 101.533 220.572 100.946C220.38 100.358 220.329 99.7346 220.422 99.124C220.515 98.5135 220.75 97.9333 221.108 97.4297C221.465 96.9262 221.936 96.5133 222.482 96.2243C223.164 95.8642 223.925 95.6812 224.696 95.6921C225.401 95.6808 226.099 95.8357 226.733 96.1444C227.326 96.4415 227.833 96.8862 228.204 97.4359Z" fill="white"/>
<path d="M229.932 92.9583H231.828V96.665C232.163 96.3667 232.543 96.1223 232.953 95.9404C233.316 95.7825 233.707 95.7003 234.102 95.6989C234.457 95.6914 234.81 95.7571 235.138 95.892C235.467 96.0268 235.764 96.228 236.011 96.4828C236.455 96.9358 236.677 97.6003 236.677 98.4764V103.507H234.796V100.171C234.819 99.5713 234.776 98.9707 234.669 98.3802C234.608 98.1051 234.457 97.8584 234.239 97.6802C234.021 97.5216 233.757 97.4402 233.488 97.4489C233.118 97.4421 232.76 97.5802 232.491 97.8337C232.198 98.1183 231.997 98.4839 231.914 98.8837C231.838 99.4027 231.81 99.9274 231.83 100.451V103.509H229.934L229.932 92.9583Z" fill="white"/>
<path d="M239.267 92.7629C239.428 92.7609 239.588 92.7922 239.736 92.8549C239.885 92.9176 240.018 93.0103 240.129 93.1272C240.246 93.2421 240.338 93.3796 240.4 93.5313C240.462 93.6829 240.492 93.8456 240.489 94.0094C240.492 94.1713 240.462 94.3321 240.401 94.482C240.34 94.6319 240.249 94.7677 240.133 94.8813C240.024 94.9968 239.892 95.0884 239.745 95.1504C239.599 95.2124 239.441 95.2434 239.282 95.2415C239.12 95.2439 238.959 95.2126 238.809 95.1495C238.66 95.0864 238.525 94.993 238.414 94.8752C238.297 94.7582 238.205 94.6188 238.144 94.4655C238.082 94.3121 238.052 94.148 238.056 93.9828C238.055 93.8231 238.087 93.665 238.147 93.5174C238.208 93.3698 238.298 93.2356 238.41 93.1225C238.523 93.0094 238.657 92.9196 238.804 92.8583C238.952 92.7969 239.11 92.7652 239.269 92.765L239.267 92.7629ZM238.312 95.8965H240.221V103.508H238.312V95.8965Z" fill="white"/>
<path d="M241.748 92.9583H243.658V103.507H241.748V92.9583Z" fill="white"/>
<path d="M251.013 92.9583H252.922V103.507H251.013V102.703C250.689 103.024 250.308 103.284 249.891 103.468C249.501 103.628 249.084 103.707 248.663 103.702C248.181 103.703 247.704 103.602 247.264 103.405C246.825 103.208 246.432 102.919 246.113 102.558C245.393 101.789 245.006 100.767 245.036 99.7146C245.036 98.5398 245.383 97.5765 246.078 96.8246C246.394 96.4658 246.783 96.1795 247.22 95.9852C247.656 95.7909 248.13 95.6933 248.608 95.6989C249.049 95.6957 249.487 95.7835 249.893 95.9568C250.31 96.1408 250.688 96.4043 251.004 96.7325L251.013 92.9583ZM249.005 97.4612C248.729 97.4543 248.455 97.5067 248.201 97.6147C247.947 97.7227 247.719 97.884 247.533 98.0875C247.135 98.5247 246.925 99.1011 246.948 99.6921C246.926 100.29 247.14 100.873 247.543 101.315C247.728 101.52 247.955 101.683 248.208 101.793C248.461 101.902 248.735 101.957 249.011 101.952C249.29 101.959 249.567 101.907 249.824 101.799C250.082 101.691 250.313 101.53 250.503 101.325C250.909 100.879 251.122 100.291 251.097 99.688C251.109 99.394 251.063 99.1003 250.961 98.8242C250.859 98.548 250.703 98.2948 250.503 98.0793C250.31 97.8773 250.078 97.7182 249.819 97.612C249.561 97.5059 249.284 97.4552 249.005 97.4632V97.4612Z" fill="white"/>
<path d="M254.857 92.9583H256.753V96.665C257.088 96.3667 257.468 96.1223 257.878 95.9404C258.241 95.7825 258.631 95.7003 259.027 95.6989C259.382 95.6914 259.735 95.7571 260.063 95.892C260.392 96.0268 260.689 96.228 260.936 96.4828C261.38 96.9358 261.602 97.6003 261.602 98.4764V103.507H259.721V100.171C259.744 99.5713 259.701 98.9707 259.594 98.3802C259.533 98.1051 259.382 97.8584 259.164 97.6802C258.946 97.5216 258.682 97.4402 258.413 97.4489C258.043 97.4421 257.685 97.5802 257.416 97.8337C257.123 98.1183 256.922 98.4839 256.839 98.8837C256.763 99.4027 256.735 99.9274 256.755 100.451V103.509H254.859L254.857 92.9583Z" fill="white"/>
<path d="M267.024 95.7012C267.735 95.699 268.434 95.8847 269.05 96.2395C269.662 96.5844 270.172 97.0863 270.525 97.6937C270.879 98.301 271.064 98.9917 271.062 99.6945C271.065 100.401 270.88 101.096 270.526 101.708C270.182 102.321 269.677 102.827 269.066 103.174C268.446 103.527 267.743 103.709 267.03 103.702C266.51 103.71 265.993 103.611 265.513 103.411C265.033 103.211 264.599 102.914 264.238 102.539C263.858 102.153 263.56 101.695 263.361 101.191C263.162 100.687 263.067 100.148 263.081 99.6065C263.095 99.0649 263.218 98.5318 263.442 98.0388C263.667 97.5458 263.988 97.103 264.387 96.7369C265.101 96.0667 266.045 95.696 267.024 95.7012ZM267.054 97.4983C266.778 97.4908 266.503 97.5416 266.248 97.6474C265.993 97.7532 265.763 97.9116 265.573 98.1123C265.374 98.3243 265.22 98.5734 265.119 98.8453C265.017 99.1172 264.97 99.4065 264.981 99.6965C264.955 100.289 265.166 100.868 265.566 101.305C265.756 101.507 265.986 101.665 266.242 101.771C266.497 101.877 266.772 101.927 267.048 101.919C267.326 101.928 267.603 101.877 267.86 101.771C268.117 101.665 268.349 101.507 268.54 101.305C268.922 100.862 269.133 100.296 269.135 99.7107C269.137 99.1253 268.93 98.5584 268.551 98.1123C268.359 97.9107 268.126 97.7517 267.869 97.6459C267.612 97.5401 267.335 97.4898 267.056 97.4983H267.054Z" fill="white"/>
<path d="M276.195 95.7013C276.906 95.6991 277.605 95.8848 278.221 96.2396C278.834 96.5844 279.343 97.0864 279.697 97.6937C280.05 98.301 280.236 98.9917 280.233 99.6945C280.236 100.401 280.051 101.096 279.697 101.709C279.353 102.321 278.848 102.827 278.238 103.174C277.618 103.527 276.915 103.709 276.201 103.702C275.68 103.71 275.164 103.611 274.683 103.41C274.203 103.21 273.768 102.913 273.407 102.537C273.027 102.151 272.729 101.693 272.53 101.189C272.332 100.685 272.236 100.146 272.25 99.6045C272.264 99.0629 272.387 98.5298 272.612 98.0367C272.836 97.5437 273.157 97.101 273.557 96.7349C274.271 96.065 275.216 95.695 276.195 95.7013ZM276.226 97.4983C275.949 97.4908 275.675 97.5416 275.419 97.6474C275.164 97.7532 274.934 97.9116 274.744 98.1123C274.546 98.3243 274.391 98.5735 274.29 98.8454C274.188 99.1172 274.142 99.4065 274.152 99.6966C274.127 100.289 274.337 100.868 274.738 101.305C274.927 101.507 275.157 101.665 275.413 101.771C275.668 101.877 275.943 101.927 276.22 101.919C276.497 101.928 276.774 101.877 277.031 101.771C277.288 101.665 277.52 101.507 277.712 101.305C278.094 100.862 278.305 100.296 278.306 99.7107C278.308 99.1253 278.101 98.5584 277.722 98.1123C277.53 97.9107 277.298 97.7518 277.04 97.646C276.783 97.5402 276.506 97.4898 276.228 97.4983H276.226Z" fill="white"/>
<path d="M287.409 92.9583H289.319V103.507H287.409V102.703C287.085 103.024 286.705 103.284 286.288 103.468C285.898 103.628 285.48 103.707 285.06 103.702C284.578 103.703 284.101 103.602 283.661 103.405C283.221 103.208 282.829 102.919 282.509 102.558C281.789 101.789 281.402 100.767 281.433 99.7146C281.433 98.5398 281.78 97.5765 282.474 96.8246C282.79 96.4658 283.18 96.1795 283.616 95.9852C284.053 95.7909 284.526 95.6933 285.004 95.6989C285.446 95.6957 285.883 95.7835 286.29 95.9568C286.707 96.1408 287.084 96.4043 287.401 96.7325L287.409 92.9583ZM285.401 97.4612C285.126 97.4543 284.851 97.5067 284.598 97.6147C284.344 97.7227 284.116 97.884 283.93 98.0875C283.531 98.5247 283.321 99.1011 283.344 99.6921C283.322 100.29 283.536 100.873 283.94 101.315C284.125 101.52 284.352 101.683 284.605 101.793C284.858 101.902 285.132 101.957 285.408 101.952C285.686 101.959 285.964 101.907 286.221 101.799C286.478 101.691 286.71 101.53 286.9 101.325C287.306 100.879 287.519 100.291 287.493 99.688C287.506 99.394 287.459 99.1003 287.358 98.8242C287.256 98.548 287.1 98.2948 286.9 98.0793C286.707 97.8773 286.474 97.7182 286.216 97.612C285.958 97.5059 285.68 97.4552 285.401 97.4632V97.4612Z" fill="white"/>
<path d="M100.086 1.41016H59.1506C56.5507 1.41016 54.4431 3.51781 54.4431 6.11773V47.0532C54.4431 49.6531 56.5507 51.7608 59.1506 51.7608H100.086C102.686 51.7608 104.794 49.6531 104.794 47.0532V6.11773C104.794 3.51781 102.686 1.41016 100.086 1.41016Z" fill="#FFD900"/>
<path d="M100.087 1.81871C101.227 1.81871 102.32 2.27156 103.127 3.07763C103.933 3.8837 104.385 4.97697 104.385 6.11693V47.0524C104.385 48.1923 103.933 49.2856 103.127 50.0917C102.32 50.8977 101.227 51.3506 100.087 51.3506H59.1518C58.0118 51.3506 56.9186 50.8977 56.1125 50.0917C55.3064 49.2856 54.8536 48.1923 54.8536 47.0524V6.11693C54.8536 4.97697 55.3064 3.8837 56.1125 3.07763C56.9186 2.27156 58.0118 1.81871 59.1518 1.81871H100.087ZM100.087 1H59.1518C57.7947 1 56.4932 1.5391 55.5336 2.49871C54.574 3.45832 54.0349 4.75984 54.0349 6.11693V47.0524C54.0349 48.4095 54.574 49.711 55.5336 50.6706C56.4932 51.6302 57.7947 52.1693 59.1518 52.1693H100.087C101.444 52.1693 102.746 51.6302 103.705 50.6706C104.665 49.711 105.204 48.4095 105.204 47.0524V6.11693C105.204 4.75984 104.665 3.45832 103.705 2.49871C102.746 1.5391 101.444 1 100.087 1Z" fill="black"/>
<path d="M46.0516 55.2395H5.11615C2.51622 55.2395 0.408569 57.3472 0.408569 59.9471V100.883C0.408569 103.482 2.51622 105.59 5.11615 105.59H46.0516C48.6515 105.59 50.7592 103.482 50.7592 100.883V59.9471C50.7592 57.3472 48.6515 55.2395 46.0516 55.2395Z" fill="#FFD900"/>
<path d="M46.0524 55.6484C47.1923 55.6484 48.2856 56.1013 49.0917 56.9073C49.8977 57.7134 50.3506 58.8067 50.3506 59.9466V100.882C50.3506 102.022 49.8977 103.115 49.0917 103.921C48.2856 104.727 47.1923 105.18 46.0524 105.18H5.11693C3.97697 105.18 2.8837 104.727 2.07763 103.921C1.27156 103.115 0.818709 102.022 0.818709 100.882V59.9466C0.818709 58.8067 1.27156 57.7134 2.07763 56.9073C2.8837 56.1013 3.97697 55.6484 5.11693 55.6484H46.0524ZM46.0524 54.8297H5.11693C3.75984 54.8297 2.45832 55.3688 1.49871 56.3284C0.539103 57.288 0 58.5895 0 59.9466V100.882C0 102.239 0.539103 103.541 1.49871 104.5C2.45832 105.46 3.75984 105.999 5.11693 105.999H46.0524C47.4095 105.999 48.711 105.46 49.6706 104.5C50.6302 103.541 51.1693 102.239 51.1693 100.882V59.9466C51.1693 58.5895 50.6302 57.288 49.6706 56.3284C48.711 55.3688 47.4095 54.8297 46.0524 54.8297Z" fill="black"/>
<path d="M100.088 55.2395H59.1523C56.5524 55.2395 54.4447 57.3472 54.4447 59.9471V100.883C54.4447 103.482 56.5524 105.59 59.1523 105.59H100.088C102.688 105.59 104.795 103.482 104.795 100.883V59.9471C104.795 57.3472 102.688 55.2395 100.088 55.2395Z" fill="#FFD900"/>
<path d="M100.087 55.6484C101.227 55.6484 102.32 56.1013 103.127 56.9073C103.933 57.7134 104.385 58.8067 104.385 59.9466V100.882C104.385 102.022 103.933 103.115 103.127 103.921C102.32 104.727 101.227 105.18 100.087 105.18H59.1518C58.0118 105.18 56.9186 104.727 56.1125 103.921C55.3064 103.115 54.8536 102.022 54.8536 100.882V59.9466C54.8536 58.8067 55.3064 57.7134 56.1125 56.9073C56.9186 56.1013 58.0118 55.6484 59.1518 55.6484H100.087ZM100.087 54.8297H59.1518C57.7947 54.8297 56.4932 55.3688 55.5336 56.3284C54.574 57.288 54.0349 58.5895 54.0349 59.9466V100.882C54.0349 102.239 54.574 103.541 55.5336 104.5C56.4932 105.46 57.7947 105.999 59.1518 105.999H100.087C101.444 105.999 102.746 105.46 103.705 104.5C104.665 103.541 105.204 102.239 105.204 100.882V59.9466C105.204 58.5895 104.665 57.288 103.705 56.3284C102.746 55.3688 101.444 54.8297 100.087 54.8297Z" fill="black"/>
<path d="M28.0399 1.43909L50.8266 25.9042" stroke="black" stroke-width="0.4" stroke-miterlimit="10"/>
<path d="M77.1631 51.5567L54.4133 28.7208" stroke="black" stroke-width="0.4" stroke-miterlimit="10"/>
<path d="M104.59 79.1878L80.5591 55.1566" stroke="black" stroke-width="0.4" stroke-miterlimit="10"/>
<path d="M104.18 57.8995L57.0488 105.031" stroke="black" stroke-width="0.4" stroke-miterlimit="10"/>
<path d="M94.3104 1.36536L54.386 42.2783" stroke="black" stroke-width="0.4" stroke-miterlimit="10"/>
<path d="M50.7599 44.9893L43.9687 51.8091" stroke="black" stroke-width="0.4" stroke-miterlimit="10"/>
<path d="M40.4399 55.24L0.452148 95.3997" stroke="black" stroke-width="0.4" stroke-miterlimit="10"/>
<path d="M10.9847 51.8606L0.511414 41.4548" stroke="black" stroke-width="0.4" stroke-miterlimit="10"/>
<path d="M50.7528 91.8709L14.2404 55.3585" stroke="black" stroke-width="0.4" stroke-miterlimit="10"/>
<path d="M64.2296 105.549L54.4869 95.7429" stroke="black" stroke-width="0.4" stroke-miterlimit="10"/>
<path d="M27.1909 1.43909L0.408875 28.2211" stroke="black" stroke-width="0.4" stroke-miterlimit="10"/>
<path d="M104.794 12.4612L94.1711 1.44543" stroke="black" stroke-width="0.4" stroke-miterlimit="10"/>
</svg>
