<svg width="16" height="16" viewBox="0 0 16 16" fill="none" xmlns="http://www.w3.org/2000/svg">
<path d="M9.20085 6.79921C8.56379 6.16241 7.6999 5.80469 6.79915 5.80469C5.8984 5.80469 5.03451 6.16241 4.39745 6.79921L1.99498 9.20091C1.3579 9.83798 1 10.702 1 11.603C1 12.504 1.3579 13.368 1.99498 14.0051C2.63205 14.6422 3.49611 15.0001 4.39706 15.0001C5.29802 15.0001 6.16208 14.6422 6.79915 14.0051L8 12.8042" stroke="#FFD900" stroke-width="1.5" stroke-linecap="round" stroke-linejoin="round"/>
<path d="M6.80078 9.20085C7.43784 9.83764 8.30172 10.1954 9.20248 10.1954C10.1032 10.1954 10.9671 9.83764 11.6042 9.20085L14.0067 6.79915C14.6437 6.16208 15.0016 5.29802 15.0016 4.39706C15.0016 3.49611 14.6437 2.63205 14.0067 1.99498C13.3696 1.3579 12.5055 1 11.6046 1C10.7036 1 9.83955 1.3579 9.20248 1.99498L8.00163 3.19583" stroke="#FFD900" stroke-width="1.5" stroke-linecap="round" stroke-linejoin="round"/>
</svg>
