<svg width="177" height="66" viewBox="0 0 177 66" fill="none" xmlns="http://www.w3.org/2000/svg">
<path d="M3.41082 31.9396C2.57269 31.9386 1.76918 31.6052 1.17653 31.0125C0.583887 30.4199 0.250502 29.6164 0.249512 28.7782V4.11902C0.249512 3.35801 0.55182 2.62817 1.08993 2.09006C1.62805 1.55194 2.35789 1.24963 3.11889 1.24963H27.7781C28.6162 1.25062 29.4198 1.58401 30.0124 2.17665C30.6051 2.7693 30.9384 3.57282 30.9394 4.41094V28.7782C30.9384 29.6164 30.6051 30.4199 30.0124 31.0125C29.4198 31.6052 28.6162 31.9386 27.7781 31.9396H3.41082Z" fill="#FFD900"/>
<path d="M27.7781 1.49902C28.5501 1.50001 29.2901 1.80711 29.836 2.35296C30.3818 2.89882 30.6889 3.63887 30.6899 4.41082V28.7781C30.6889 29.5501 30.3818 30.2901 29.836 30.836C29.2901 31.3818 28.5501 31.6889 27.7781 31.6899H3.41082C2.63887 31.6889 1.89882 31.3818 1.35296 30.836C0.807111 30.2901 0.500013 29.5501 0.499023 28.7781V4.11889C0.499023 3.42406 0.775044 2.75769 1.26637 2.26637C1.75769 1.77504 2.42406 1.49902 3.11889 1.49902H27.7781ZM27.7781 1H3.11889C2.29171 1 1.49841 1.3286 0.913502 1.9135C0.328596 2.49841 0 3.29171 0 4.11889V28.7781C0 29.6827 0.359352 30.5503 0.999005 31.1899C1.63866 31.8296 2.50622 32.1889 3.41082 32.1889H27.7781C28.6827 32.1889 29.5503 31.8296 30.1899 31.1899C30.8296 30.5503 31.1889 29.6827 31.1889 28.7781V4.41082C31.1889 3.50622 30.8296 2.63866 30.1899 1.99901C29.5503 1.35935 28.6827 1 27.7781 1Z" fill="black"/>
<path d="M73.9178 1.06226H72.4207V64.9372H73.9178V1.06226Z" fill="#FFD900"/>
<path d="M73.8554 64.8749H72.4831V1.12476H73.8554V64.8749ZM73.9802 1H72.3583V64.9997H73.9802V1Z" fill="black" stroke="black" stroke-width="0.4"/>
<path d="M91.3562 26.1255H94.6821V39.3808H91.3562V37.9786C90.7917 38.5385 90.1296 38.9905 89.4025 39.3122C88.7297 39.5878 88.0087 39.7265 87.2816 39.7202C85.57 39.7202 84.0896 39.0548 82.8403 37.7241C81.5911 36.3933 80.9673 34.7424 80.969 32.7713C80.969 30.7244 81.5732 29.0473 82.7817 27.7399C83.9902 26.4324 85.4585 25.7787 87.1868 25.7787C87.9563 25.7734 88.7186 25.9267 89.4262 26.2291C90.1529 26.5498 90.8102 27.0092 91.3611 27.5814L91.3562 26.1255ZM87.863 28.8552C87.3825 28.8426 86.9049 28.9331 86.4625 29.1208C86.02 29.3085 85.6229 29.5889 85.298 29.943C84.6177 30.67 84.2775 31.6019 84.2775 32.7388C84.2775 33.8758 84.6235 34.8181 85.3155 35.5658C85.6373 35.9232 86.032 36.2076 86.4729 36.3998C86.9138 36.5919 87.3908 36.6874 87.8717 36.6799C88.3574 36.6928 88.8403 36.6023 89.2884 36.4143C89.7364 36.2263 90.1393 35.9451 90.4704 35.5895C91.1582 34.8626 91.5021 33.9103 91.5021 32.7326C91.5021 31.579 91.1582 30.645 90.4704 29.9306C89.7826 29.2161 88.9122 28.8573 87.8593 28.8539L87.863 28.8552Z" fill="white"/>
<path d="M97.6838 21.0081H101.01V39.3808H97.6838V21.0081Z" fill="white"/>
<path d="M103.661 21.0081H106.987V39.3808H103.661V21.0081Z" fill="white"/>
<path d="M115.524 26.1259H118.78L121.446 33.6674L124.315 26.1259H126.311L129.122 33.5813L131.791 26.1246H135.067L130.23 39.3799H128.124L125.292 31.8272L122.385 39.3812H120.302L115.524 26.1259Z" fill="white"/>
<path d="M150.225 33.7145H139.541C139.694 34.6568 140.107 35.4054 140.777 35.9601C141.447 36.5149 142.302 36.7931 143.342 36.7947C143.936 36.8032 144.526 36.6921 145.076 36.4682C145.626 36.2442 146.126 35.9119 146.546 35.491L149.348 36.8047C148.713 37.7423 147.849 38.5013 146.838 39.0091C145.863 39.484 144.705 39.7215 143.366 39.7215C141.286 39.7215 139.593 39.0657 138.285 37.7541C136.978 36.4425 136.324 34.7999 136.324 32.8262C136.324 30.8035 136.976 29.1243 138.279 27.7886C139.583 26.4529 141.217 25.785 143.183 25.785C145.271 25.785 146.969 26.4529 148.276 27.7886C149.583 29.1243 150.237 30.8888 150.237 33.082L150.225 33.7145ZM146.899 31.0946C146.684 30.3629 146.225 29.7266 145.599 29.2919C144.943 28.8267 144.157 28.5832 143.353 28.597C142.476 28.5811 141.618 28.8552 140.913 29.3767C140.474 29.7019 140.067 30.2746 139.693 31.0946H146.899Z" fill="white"/>
<path d="M81.2983 58.8423H82.4374L83.3705 61.4821L84.3686 58.8423H85.066L86.0515 61.4522L86.986 58.8423H88.1325L86.4395 63.482H85.7072L84.7179 60.8384L83.6986 63.482H82.9701L81.2983 58.8423Z" fill="white"/>
<path d="M93.4421 61.4991H89.6994C89.7409 61.8061 89.8952 62.0868 90.1323 62.2863C90.3868 62.4877 90.705 62.5913 91.0293 62.5782C91.2375 62.5813 91.4442 62.5425 91.6371 62.4641C91.83 62.3856 92.0051 62.2692 92.1521 62.1216L93.1327 62.582C92.9119 62.9088 92.6113 63.1737 92.2594 63.3517C91.8787 63.5265 91.463 63.6119 91.0443 63.6012C90.3165 63.6012 89.7239 63.3717 89.2665 62.9126C89.0406 62.6869 88.8632 62.4175 88.7452 62.1208C88.6272 61.8241 88.5711 61.5064 88.5803 61.1872C88.5705 60.8625 88.626 60.539 88.7437 60.2362C88.8613 59.9334 89.0387 59.6573 89.2652 59.4244C89.487 59.1948 89.7542 59.0138 90.0498 58.8931C90.3453 58.7724 90.6628 58.7146 90.9819 58.7233C91.7121 58.7233 92.3064 58.957 92.7646 59.4244C93.2229 59.8918 93.4516 60.5094 93.4508 61.277L93.4421 61.4991ZM92.2781 60.5821C92.203 60.3258 92.0423 60.103 91.8227 59.9509C91.5927 59.7875 91.3164 59.7023 91.0343 59.7076C90.7271 59.702 90.4267 59.798 90.1797 59.9808C89.9903 60.1433 89.8438 60.3498 89.753 60.5821H92.2781Z" fill="white"/>
<path d="M94.2592 57.0514H95.4232V63.4813H94.2592V57.0514Z" fill="white"/>
<path d="M101.022 59.7797L100.053 60.3124C99.902 60.1445 99.7181 60.0094 99.5127 59.9157C99.3141 59.838 99.1021 59.8003 98.8889 59.8047C98.6958 59.7962 98.5029 59.8262 98.3215 59.8931C98.14 59.9599 97.9737 60.0622 97.8322 60.1939C97.6991 60.3229 97.5945 60.4783 97.5251 60.6502C97.4557 60.8221 97.423 61.0067 97.4293 61.1919C97.4227 61.3713 97.4538 61.55 97.5207 61.7165C97.5875 61.8831 97.6885 62.0337 97.8173 62.1588C97.9541 62.2857 98.1148 62.3841 98.2899 62.4483C98.4651 62.5126 98.6514 62.5414 98.8378 62.5331C99.3584 62.5331 99.7639 62.3555 100.054 62.0004L100.972 62.6241C100.473 63.2712 99.7714 63.5947 98.8665 63.5947C98.0506 63.5947 97.4118 63.3531 96.9502 62.8699C96.6852 62.6026 96.4865 62.2769 96.3699 61.919C96.2533 61.561 96.2222 61.1808 96.2789 60.8086C96.3357 60.4365 96.4787 60.0828 96.6967 59.7759C96.9146 59.469 97.2014 59.2174 97.5341 59.0411C97.9498 58.8217 98.4139 58.7101 98.8839 58.7168C99.3136 58.7099 99.7389 58.8043 100.125 58.9925C100.487 59.1735 100.796 59.4446 101.022 59.7797Z" fill="white"/>
<path d="M104.25 58.7234C104.683 58.7221 105.109 58.8353 105.485 59.0515C105.858 59.2617 106.168 59.5677 106.384 59.9379C106.6 60.3081 106.712 60.729 106.711 61.1574C106.713 61.5883 106.6 62.0119 106.384 62.385C106.174 62.7581 105.867 63.067 105.495 63.2783C105.117 63.4936 104.688 63.6047 104.253 63.6001C103.936 63.6053 103.621 63.545 103.328 63.4231C103.034 63.3012 102.769 63.1202 102.549 62.8915C102.318 62.6561 102.136 62.3765 102.015 62.0694C101.894 61.7623 101.836 61.4339 101.844 61.1038C101.853 60.7737 101.927 60.4487 102.064 60.1482C102.201 59.8477 102.397 59.5778 102.64 59.3547C103.076 58.9456 103.652 58.7196 104.25 58.7234ZM104.268 59.8188C104.1 59.8142 103.933 59.8452 103.777 59.9097C103.621 59.9742 103.481 60.0707 103.365 60.1931C103.244 60.3223 103.15 60.4741 103.088 60.6398C103.027 60.8056 102.998 60.9819 103.005 61.1587C102.989 61.5199 103.117 61.8726 103.361 62.1392C103.477 62.2619 103.617 62.3587 103.773 62.4232C103.929 62.4877 104.096 62.5185 104.265 62.5135C104.434 62.5185 104.603 62.4877 104.759 62.4233C104.916 62.3588 105.057 62.262 105.174 62.1392C105.407 61.8688 105.535 61.5241 105.537 61.1673C105.538 60.8105 105.411 60.465 105.18 60.1931C105.063 60.0701 104.922 59.9733 104.765 59.9088C104.608 59.8443 104.439 59.8136 104.27 59.8188H104.268Z" fill="white"/>
<path d="M107.653 58.8417H108.817V59.3744C109.002 59.1664 109.228 58.9994 109.481 58.8841C109.732 58.7745 110.003 58.7192 110.277 58.722C110.553 58.7184 110.825 58.7923 111.061 58.9353C111.303 59.0871 111.498 59.303 111.624 59.5591C111.796 59.2977 112.03 59.0833 112.305 58.9353C112.577 58.7926 112.879 58.7193 113.186 58.722C113.493 58.7152 113.796 58.7952 114.059 58.9528C114.297 59.0924 114.486 59.3025 114.599 59.5541C114.709 59.8036 114.764 60.2057 114.764 60.7605V63.4814H113.591V61.1322C113.591 60.6066 113.526 60.2506 113.396 60.0643C113.329 59.9716 113.24 59.8974 113.137 59.8485C113.034 59.7996 112.92 59.7777 112.807 59.7849C112.615 59.7827 112.427 59.8427 112.271 59.9558C112.11 60.0744 111.987 60.2386 111.92 60.4274C111.828 60.7406 111.789 61.067 111.805 61.393V63.4864H110.632V61.2408C110.645 60.9372 110.614 60.6335 110.54 60.3388C110.494 60.1749 110.397 60.0297 110.264 59.9234C110.135 59.8305 109.979 59.7827 109.82 59.7874C109.63 59.7858 109.445 59.8463 109.292 59.9595C109.129 60.0821 109.005 60.2506 108.938 60.4436C108.845 60.7617 108.805 61.0931 108.821 61.4242V63.4876H107.657L107.653 58.8417Z" fill="white"/>
<path d="M120.514 61.4991H116.771C116.813 61.8061 116.967 62.0868 117.204 62.2863C117.459 62.4877 117.777 62.5913 118.101 62.5782C118.309 62.5813 118.516 62.5425 118.709 62.4641C118.902 62.3856 119.077 62.2692 119.224 62.1216L120.205 62.582C119.984 62.9088 119.683 63.1737 119.331 63.3517C118.951 63.5265 118.535 63.6119 118.116 63.6012C117.388 63.6012 116.796 63.3717 116.338 62.9126C116.113 62.6869 115.935 62.4175 115.817 62.1208C115.699 61.8241 115.643 61.5064 115.652 61.1872C115.642 60.8625 115.698 60.539 115.816 60.2362C115.933 59.9334 116.111 59.6573 116.337 59.4244C116.559 59.1948 116.826 59.0138 117.122 58.8931C117.417 58.7724 117.735 58.7146 118.054 58.7233C118.784 58.7233 119.378 58.957 119.837 59.4244C120.295 59.8918 120.524 60.5094 120.523 61.277L120.514 61.4991ZM119.35 60.5821C119.275 60.3258 119.114 60.103 118.895 59.9509C118.665 59.7875 118.388 59.7023 118.106 59.7076C117.799 59.702 117.499 59.798 117.252 59.9808C117.062 60.1433 116.916 60.3498 116.825 60.5821H119.35Z" fill="white"/>
<path d="M124.043 57.1323H125.207V58.8427H125.899V59.8408H125.207V63.4786H124.043V59.8445H123.446V58.8465H124.043V57.1323Z" fill="white"/>
<path d="M128.7 58.7234C129.134 58.7221 129.56 58.8353 129.936 59.0515C130.309 59.2617 130.619 59.5677 130.835 59.9379C131.05 60.3081 131.163 60.729 131.162 61.1574C131.164 61.5883 131.051 62.0119 130.835 62.385C130.625 62.7581 130.318 63.067 129.946 63.2783C129.568 63.4936 129.139 63.6046 128.704 63.6001C128.387 63.6051 128.072 63.5447 127.779 63.4228C127.486 63.3009 127.221 63.1201 127.001 62.8915C126.77 62.6561 126.588 62.3765 126.467 62.0694C126.346 61.7622 126.288 61.4338 126.296 61.1038C126.305 60.7737 126.379 60.4487 126.516 60.1482C126.653 59.8477 126.849 59.5778 127.092 59.3547C127.528 58.9459 128.103 58.7199 128.7 58.7234ZM128.719 59.8188C128.551 59.8142 128.383 59.8452 128.228 59.9097C128.072 59.9741 127.932 60.0707 127.816 60.193C127.695 60.3223 127.601 60.4741 127.539 60.6398C127.477 60.8056 127.449 60.9819 127.455 61.1587C127.44 61.5199 127.568 61.8725 127.812 62.1392C127.928 62.2619 128.068 62.3587 128.224 62.4232C128.379 62.4877 128.547 62.5185 128.715 62.5135C128.885 62.5185 129.053 62.4877 129.21 62.4233C129.367 62.3588 129.508 62.262 129.625 62.1392C129.858 61.8688 129.986 61.5241 129.987 61.1673C129.989 60.8105 129.862 60.465 129.631 60.193C129.514 60.07 129.372 59.973 129.215 59.9085C129.058 59.844 128.889 59.8134 128.719 59.8188Z" fill="white"/>
<path d="M139.096 59.7797L138.127 60.3124C137.976 60.1445 137.792 60.0094 137.587 59.9157C137.388 59.838 137.176 59.8003 136.963 59.8047C136.77 59.7962 136.577 59.8262 136.396 59.8931C136.214 59.9599 136.048 60.0622 135.906 60.1939C135.773 60.3229 135.669 60.4783 135.599 60.6502C135.53 60.8221 135.497 61.0067 135.503 61.1919C135.497 61.3713 135.528 61.55 135.595 61.7165C135.662 61.8831 135.763 62.0337 135.891 62.1588C136.028 62.2857 136.189 62.3841 136.364 62.4483C136.539 62.5126 136.726 62.5414 136.912 62.5331C137.433 62.5331 137.838 62.3555 138.128 62.0004L139.047 62.6241C138.547 63.2712 137.846 63.5947 136.941 63.5947C136.125 63.5947 135.486 63.3531 135.024 62.8699C134.759 62.6026 134.561 62.2769 134.444 61.919C134.327 61.561 134.296 61.1808 134.353 60.8086C134.41 60.4365 134.553 60.0828 134.771 59.7759C134.989 59.469 135.276 59.2174 135.608 59.0411C136.024 58.8217 136.488 58.7101 136.958 58.7168C137.388 58.7099 137.813 58.8043 138.199 58.9925C138.561 59.1735 138.87 59.4446 139.096 59.7797Z" fill="white"/>
<path d="M140.149 57.0514H141.305V59.3107C141.509 59.1289 141.741 58.9799 141.991 58.8691C142.212 58.7728 142.45 58.7227 142.691 58.7219C142.907 58.7173 143.122 58.7573 143.322 58.8396C143.523 58.9218 143.704 59.0444 143.855 59.1997C144.125 59.4758 144.26 59.8809 144.26 60.4148V63.4813H143.114V61.4478C143.128 61.0822 143.102 60.7161 143.036 60.3562C142.999 60.1885 142.907 60.0382 142.774 59.9295C142.642 59.8329 142.48 59.7833 142.316 59.7885C142.091 59.7844 141.873 59.8686 141.709 60.0231C141.53 60.1965 141.408 60.4194 141.357 60.6631C141.311 60.9794 141.294 61.2993 141.306 61.6187V63.4826H140.151L140.149 57.0514Z" fill="white"/>
<path d="M145.839 56.9316C145.938 56.9303 146.035 56.9494 146.125 56.9877C146.216 57.0259 146.297 57.0824 146.365 57.1536C146.436 57.2237 146.492 57.3075 146.53 57.3999C146.568 57.4923 146.586 57.5915 146.584 57.6913C146.586 57.79 146.568 57.888 146.53 57.9794C146.493 58.0708 146.438 58.1536 146.367 58.2228C146.3 58.2932 146.22 58.349 146.131 58.3868C146.041 58.4246 145.945 58.4435 145.848 58.4424C145.749 58.4438 145.651 58.4247 145.56 58.3863C145.469 58.3478 145.387 58.2909 145.319 58.2191C145.248 58.1477 145.192 58.0628 145.155 57.9693C145.117 57.8759 145.099 57.7758 145.101 57.6751C145.101 57.5778 145.12 57.4814 145.157 57.3914C145.194 57.3015 145.248 57.2197 145.317 57.1507C145.386 57.0818 145.467 57.0271 145.557 56.9897C145.647 56.9523 145.743 56.933 145.841 56.9328L145.839 56.9316ZM145.257 58.8416H146.421V63.4813H145.257V58.8416Z" fill="white"/>
<path d="M147.352 57.0514H148.516V63.4813H147.352V57.0514Z" fill="white"/>
<path d="M152.998 57.0514H154.162V63.4813H152.998V62.991C152.8 63.1869 152.569 63.345 152.314 63.4576C152.077 63.5547 151.822 63.603 151.566 63.5998C151.272 63.6008 150.981 63.5391 150.713 63.4188C150.445 63.2986 150.206 63.1225 150.011 62.9024C149.573 62.434 149.337 61.8111 149.355 61.1696C149.355 60.4535 149.567 59.8663 149.99 59.408C150.183 59.1894 150.42 59.0148 150.686 58.8964C150.952 58.778 151.241 58.7184 151.532 58.7219C151.801 58.7199 152.068 58.7734 152.316 58.8791C152.57 58.9912 152.8 59.1518 152.993 59.3519L152.998 57.0514ZM151.774 59.796C151.606 59.7918 151.439 59.8238 151.284 59.8896C151.13 59.9555 150.991 60.0537 150.877 60.1778C150.634 60.4443 150.506 60.7956 150.52 61.1559C150.507 61.5205 150.637 61.8758 150.883 62.1452C150.996 62.27 151.134 62.3692 151.289 62.4361C151.443 62.503 151.61 62.5361 151.778 62.5332C151.948 62.5377 152.117 62.506 152.274 62.4401C152.43 62.3743 152.572 62.2759 152.687 62.1514C152.935 61.8794 153.065 61.5207 153.049 61.1534C153.057 60.9741 153.029 60.7951 152.967 60.6268C152.904 60.4585 152.81 60.3042 152.687 60.1728C152.57 60.0497 152.428 59.9527 152.271 59.888C152.113 59.8233 151.944 59.7924 151.774 59.7973V59.796Z" fill="white"/>
<path d="M155.342 57.0514H156.497V59.3107C156.702 59.1289 156.933 58.9799 157.183 58.8691C157.404 58.7728 157.642 58.7227 157.883 58.7219C158.1 58.7173 158.315 58.7573 158.515 58.8396C158.715 58.9218 158.897 59.0444 159.047 59.1997C159.318 59.4758 159.453 59.8809 159.453 60.4148V63.4813H158.306V61.4478C158.32 61.0822 158.294 60.7161 158.229 60.3562C158.192 60.1885 158.1 60.0382 157.967 59.9295C157.834 59.8329 157.673 59.7833 157.509 59.7885C157.284 59.7844 157.066 59.8686 156.902 60.0231C156.723 60.1965 156.601 60.4194 156.55 60.6631C156.504 60.9794 156.487 61.2993 156.499 61.6187V63.4826H155.343L155.342 57.0514Z" fill="white"/>
<path d="M162.758 58.7234C163.191 58.7221 163.617 58.8353 163.993 59.0515C164.366 59.2617 164.676 59.5677 164.892 59.9379C165.108 60.308 165.22 60.729 165.219 61.1574C165.221 61.5883 165.108 62.0119 164.892 62.385C164.682 62.7581 164.375 63.067 164.003 63.2783C163.625 63.4936 163.196 63.6046 162.761 63.6001C162.444 63.6049 162.13 63.5444 161.837 63.4226C161.544 63.3007 161.28 63.1199 161.06 62.8915C160.828 62.6561 160.646 62.3765 160.525 62.0694C160.404 61.7622 160.346 61.4338 160.354 61.1038C160.363 60.7737 160.438 60.4487 160.575 60.1482C160.711 59.8477 160.907 59.5778 161.151 59.3547C161.586 58.9462 162.161 58.7202 162.758 58.7234ZM162.776 59.8188C162.608 59.8142 162.44 59.8452 162.285 59.9097C162.129 59.9741 161.989 60.0707 161.873 60.193C161.752 60.3223 161.658 60.4741 161.596 60.6398C161.534 60.8056 161.506 60.9819 161.513 61.1587C161.497 61.5199 161.625 61.8725 161.869 62.1392C161.985 62.2619 162.125 62.3587 162.281 62.4232C162.437 62.4877 162.604 62.5185 162.773 62.5135C162.942 62.5185 163.11 62.4877 163.267 62.4232C163.424 62.3588 163.565 62.262 163.682 62.1392C163.915 61.8688 164.043 61.5241 164.045 61.1673C164.046 60.8105 163.919 60.465 163.688 60.193C163.571 60.0701 163.43 59.9733 163.273 59.9088C163.116 59.8443 162.947 59.8136 162.778 59.8188H162.776Z" fill="white"/>
<path d="M168.348 58.7234C168.781 58.7221 169.207 58.8353 169.583 59.0515C169.956 59.2617 170.267 59.5677 170.482 59.9379C170.698 60.3081 170.811 60.7291 170.809 61.1574C170.811 61.5883 170.698 62.0119 170.482 62.385C170.273 62.7581 169.965 63.067 169.593 63.2783C169.215 63.4936 168.787 63.6047 168.352 63.6001C168.034 63.6049 167.719 63.5444 167.426 63.4222C167.133 63.3001 166.869 63.1191 166.649 62.8903C166.417 62.6549 166.235 62.3753 166.114 62.0682C165.993 61.761 165.935 61.4326 165.944 61.1025C165.952 60.7725 166.027 60.4475 166.164 60.147C166.301 59.8465 166.496 59.5766 166.74 59.3535C167.175 58.9451 167.751 58.7196 168.348 58.7234ZM168.367 59.8188C168.198 59.8142 168.031 59.8452 167.875 59.9097C167.719 59.9742 167.579 60.0707 167.463 60.1931C167.343 60.3223 167.249 60.4741 167.187 60.6398C167.125 60.8056 167.096 60.9819 167.103 61.1587C167.087 61.5199 167.216 61.8726 167.46 62.1393C167.575 62.2619 167.715 62.3587 167.871 62.4232C168.027 62.4877 168.194 62.5185 168.363 62.5135C168.532 62.5185 168.701 62.4877 168.857 62.4233C169.014 62.3588 169.156 62.262 169.272 62.1393C169.505 61.8688 169.634 61.5241 169.635 61.1673C169.636 60.8105 169.51 60.465 169.279 60.1931C169.162 60.0701 169.02 59.9733 168.863 59.9088C168.706 59.8443 168.537 59.8136 168.368 59.8188H168.367Z" fill="white"/>
<path d="M175.183 57.0514H176.347V63.4813H175.183V62.991C174.986 63.1869 174.754 63.345 174.5 63.4576C174.262 63.5547 174.008 63.603 173.751 63.5998C173.457 63.6008 173.167 63.5391 172.899 63.4188C172.631 63.2986 172.391 63.1225 172.197 62.9024C171.758 62.434 171.522 61.8111 171.54 61.1696C171.54 60.4535 171.752 59.8663 172.175 59.408C172.368 59.1894 172.605 59.0148 172.871 58.8964C173.138 58.778 173.426 58.7184 173.717 58.7219C173.987 58.7199 174.253 58.7734 174.501 58.8791C174.755 58.9912 174.985 59.1518 175.178 59.3519L175.183 57.0514ZM173.959 59.796C173.791 59.7918 173.624 59.8238 173.47 59.8896C173.315 59.9555 173.176 60.0537 173.062 60.1778C172.82 60.4443 172.691 60.7956 172.706 61.1559C172.692 61.5205 172.822 61.8758 173.069 62.1452C173.181 62.27 173.32 62.3692 173.474 62.4361C173.628 62.503 173.795 62.5361 173.963 62.5332C174.133 62.5377 174.302 62.506 174.459 62.4401C174.616 62.3743 174.757 62.2759 174.873 62.1514C175.12 61.8794 175.25 61.5207 175.234 61.1534C175.242 60.9741 175.214 60.7951 175.152 60.6268C175.09 60.4585 174.995 60.3042 174.873 60.1728C174.755 60.0497 174.613 59.9527 174.456 59.888C174.299 59.8233 174.129 59.7924 173.959 59.7973V59.796Z" fill="white"/>
<path d="M61.0056 1.24963H36.0544C34.4697 1.24963 33.1851 2.5343 33.1851 4.11902V29.0702C33.1851 30.6549 34.4697 31.9396 36.0544 31.9396H61.0056C62.5903 31.9396 63.875 30.6549 63.875 29.0702V4.11902C63.875 2.5343 62.5903 1.24963 61.0056 1.24963Z" fill="#FFD900"/>
<path d="M61.0056 1.49902C61.7004 1.49902 62.3668 1.77504 62.8581 2.26637C63.3494 2.75769 63.6255 3.42406 63.6255 4.11889V29.07C63.6255 29.7649 63.3494 30.4313 62.8581 30.9226C62.3668 31.4139 61.7004 31.6899 61.0056 31.6899H36.0544C35.3596 31.6899 34.6932 31.4139 34.2019 30.9226C33.7106 30.4313 33.4346 29.7649 33.4346 29.07V4.11889C33.4346 3.42406 33.7106 2.75769 34.2019 2.26637C34.6932 1.77504 35.3596 1.49902 36.0544 1.49902H61.0056ZM61.0056 1H36.0544C35.2273 1 34.434 1.3286 33.849 1.9135C33.2641 2.49841 32.9355 3.29171 32.9355 4.11889V29.07C32.9355 29.8972 33.2641 30.6905 33.849 31.2754C34.434 31.8603 35.2273 32.1889 36.0544 32.1889H61.0056C61.8328 32.1889 62.6261 31.8603 63.211 31.2754C63.7959 30.6905 64.1245 29.8972 64.1245 29.07V4.11889C64.1245 3.29171 63.7959 2.49841 63.211 1.9135C62.6261 1.3286 61.8328 1 61.0056 1Z" fill="black"/>
<path d="M28.07 34.0604H3.11889C1.53418 34.0604 0.249512 35.3451 0.249512 36.9298V61.881C0.249512 63.4657 1.53418 64.7503 3.11889 64.7503H28.07C29.6548 64.7503 30.9394 63.4657 30.9394 61.881V36.9298C30.9394 35.3451 29.6548 34.0604 28.07 34.0604Z" fill="#FFD900"/>
<path d="M28.07 34.3102C28.7649 34.3102 29.4313 34.5862 29.9226 35.0775C30.4139 35.5688 30.6899 36.2352 30.6899 36.9301V61.8812C30.6899 62.576 30.4139 63.2424 29.9226 63.7337C29.4313 64.225 28.7649 64.5011 28.07 64.5011H3.11889C2.42406 64.5011 1.75769 64.225 1.26637 63.7337C0.775044 63.2424 0.499023 62.576 0.499023 61.8812V36.9301C0.499023 36.2352 0.775044 35.5688 1.26637 35.0775C1.75769 34.5862 2.42406 34.3102 3.11889 34.3102H28.07ZM28.07 33.8112H3.11889C2.29171 33.8112 1.49841 34.1398 0.913502 34.7247C0.328596 35.3096 0 36.1029 0 36.9301V61.8812C0 62.7084 0.328596 63.5017 0.913502 64.0866C1.49841 64.6715 2.29171 65.0001 3.11889 65.0001H28.07C28.8972 65.0001 29.6905 64.6715 30.2754 64.0866C30.8603 63.5017 31.1889 62.7084 31.1889 61.8812V36.9301C31.1889 36.1029 30.8603 35.3096 30.2754 34.7247C29.6905 34.1398 28.8972 33.8112 28.07 33.8112Z" fill="black"/>
<path d="M61.0056 34.0607H36.0544C34.4697 34.0607 33.1851 35.3453 33.1851 36.9301V61.8812C33.1851 63.4659 34.4697 64.7506 36.0544 64.7506H61.0056C62.5903 64.7506 63.875 63.4659 63.875 61.8812V36.9301C63.875 35.3453 62.5903 34.0607 61.0056 34.0607Z" fill="#FFD900"/>
<path d="M61.0056 34.3102C61.7004 34.3102 62.3668 34.5862 62.8581 35.0775C63.3494 35.5688 63.6255 36.2352 63.6255 36.9301V61.8812C63.6255 62.576 63.3494 63.2424 62.8581 63.7337C62.3668 64.225 61.7004 64.5011 61.0056 64.5011H36.0544C35.3596 64.5011 34.6932 64.225 34.2019 63.7337C33.7106 63.2424 33.4346 62.576 33.4346 61.8812V36.9301C33.4346 36.2352 33.7106 35.5688 34.2019 35.0775C34.6932 34.5862 35.3596 34.3102 36.0544 34.3102H61.0056ZM61.0056 33.8112H36.0544C35.2273 33.8112 34.434 34.1398 33.849 34.7247C33.2641 35.3096 32.9355 36.1029 32.9355 36.9301V61.8812C32.9355 62.7084 33.2641 63.5017 33.849 64.0866C34.434 64.6715 35.2273 65.0001 36.0544 65.0001H61.0056C61.8328 65.0001 62.6261 64.6715 63.211 64.0866C63.7959 63.5017 64.1245 62.7084 64.1245 61.8812V36.9301C64.1245 36.1029 63.7959 35.3096 63.211 34.7247C62.6261 34.1398 61.8328 33.8112 61.0056 33.8112Z" fill="black"/>
<path d="M17.0916 1.26807L30.9806 16.1801" stroke="black" stroke-width="0.4" stroke-miterlimit="10"/>
<path d="M47.0329 31.8152L33.1663 17.8962" stroke="black" stroke-width="0.4" stroke-miterlimit="10"/>
<path d="M63.7502 48.6571L49.1026 34.0095" stroke="black" stroke-width="0.4" stroke-miterlimit="10"/>
<path d="M63.5007 35.6819L34.7732 64.4094" stroke="black" stroke-width="0.4" stroke-miterlimit="10"/>
<path d="M57.4849 1.22302L33.1501 26.1605" stroke="black" stroke-width="0.4" stroke-miterlimit="10"/>
<path d="M30.9394 27.8137L26.8 31.9706" stroke="black" stroke-width="0.4" stroke-miterlimit="10"/>
<path d="M24.6492 34.0605L0.275696 58.5389" stroke="black" stroke-width="0.4" stroke-miterlimit="10"/>
<path d="M6.69564 32.0019L0.31189 25.6593" stroke="black" stroke-width="0.4" stroke-miterlimit="10"/>
<path d="M30.9357 56.388L8.68054 34.1328" stroke="black" stroke-width="0.4" stroke-miterlimit="10"/>
<path d="M39.1496 64.7257L33.2112 58.7487" stroke="black" stroke-width="0.4" stroke-miterlimit="10"/>
<path d="M16.5738 1.26807L0.249512 17.5924" stroke="black" stroke-width="0.4" stroke-miterlimit="10"/>
<path d="M63.875 7.98633L57.4001 1.27197" stroke="black" stroke-width="0.4" stroke-miterlimit="10"/>
</svg>
