<svg width="40" height="40" viewBox="0 0 40 40" fill="none" xmlns="http://www.w3.org/2000/svg">
<path d="M20.266 25.7734L20.4692 25.7266C21.9613 25.375 22.9535 24.3437 23.1332 22.9688C23.3442 21.2812 22.2504 19.6563 20.4692 19.0313C19.2895 18.6172 18.6098 18.3437 18.3754 18.2344C18.0238 18.0703 17.8598 17.8359 17.8832 17.5234C17.9067 17.1875 18.1488 16.8516 18.4223 16.7734C19.5942 16.4219 20.2348 16.8359 20.3754 17.0313L20.3832 17.0469C20.7582 17.5781 21.4848 17.7031 22.016 17.3359C22.2738 17.1562 22.4457 16.8906 22.5004 16.5781C22.5551 16.2656 22.4848 15.9609 22.3051 15.7031C21.9067 15.1328 21.266 14.6953 20.4926 14.4766L20.2817 14.4141L20.227 14.1953C20.0942 13.6797 19.6254 13.3125 19.0942 13.3125C18.5317 13.3125 18.0473 13.7109 17.9457 14.2578L17.8988 14.4844L17.6801 14.5547C16.5004 14.9375 15.641 16.0703 15.5473 17.3594C15.4535 18.6328 16.1567 19.7813 17.3754 20.3594C17.7582 20.5391 18.602 20.8672 19.6879 21.25C20.5395 21.5547 20.8676 22.2031 20.8051 22.6875C20.7426 23.1562 20.2973 23.4531 19.5785 23.5156C18.8129 23.5859 17.8051 23.3594 17.3676 22.8125C17.1723 22.5703 16.891 22.4141 16.5785 22.3828C16.5395 22.375 16.4926 22.375 16.4535 22.375C16.1879 22.375 15.9301 22.4688 15.7192 22.6328C15.477 22.8281 15.3207 23.1094 15.2895 23.4219C15.2582 23.7344 15.3442 24.0391 15.5395 24.2812C16.0473 24.9141 16.7973 25.3828 17.7035 25.6406L17.9067 25.7031L17.9692 25.9062C18.1176 26.3984 18.5785 26.7422 19.0942 26.7422C19.5785 26.7422 20.0238 26.4375 20.1957 25.9844L20.266 25.7734Z" fill="#FFD900"/>
<path d="M8.85938 25.625H7.90625C7.25781 25.625 6.73438 26.1484 6.73438 26.7969C6.73438 27.4453 7.25781 27.9688 7.90625 27.9688H8.85938C9.50781 27.9688 10.0312 27.4453 10.0312 26.7969C10.0312 26.1484 9.50781 25.625 8.85938 25.625Z" fill="#FFD900"/>
<path d="M30.5234 12.0542H29.5703C28.9219 12.0542 28.3984 12.5776 28.3984 13.2261C28.3984 13.8745 28.9219 14.3979 29.5703 14.3979H30.5234C31.1719 14.3979 31.6953 13.8745 31.6953 13.2261C31.6953 12.5776 31.1719 12.0542 30.5234 12.0542Z" fill="#FFD900"/>
<path d="M8.85938 12.0542H7.90625C7.25781 12.0542 6.73438 12.5776 6.73438 13.2261C6.73438 13.8745 7.25781 14.3979 7.90625 14.3979H8.85938C9.50781 14.3979 10.0312 13.8745 10.0312 13.2261C10.0312 12.5776 9.50781 12.0542 8.85938 12.0542Z" fill="#FFD900"/>
<path d="M38.0469 11.5312C38.0469 8.29688 35.4219 5.67188 32.1875 5.67188H6.25C3.01562 5.67188 0.390625 8.29688 0.390625 11.5312V28.4609C0.390625 31.6953 3.01562 34.3203 6.25 34.3203H24.3047C24.9531 34.3203 25.4766 33.7969 25.4766 33.1484C25.4766 32.5 24.9531 31.9766 24.3047 31.9766H6.25C4.3125 31.9766 2.73438 30.3984 2.73438 28.4609V11.5312C2.73438 9.59375 4.3125 8.01562 6.25 8.01562H32.1875C34.125 8.01562 35.7031 9.59375 35.7031 11.5312V14.3516C35.7031 15 36.2266 15.5234 36.875 15.5234C37.5234 15.5234 38.0469 15 38.0469 14.3516V11.5312Z" fill="#FFD900"/>
<path d="M38.4375 31.9761H30.5469C29.8984 31.9761 29.375 32.4995 29.375 33.1479C29.375 33.7964 29.8984 34.3198 30.5469 34.3198H38.4375C39.0859 34.3198 39.6094 33.7964 39.6094 33.1479C39.6094 32.4995 39.0859 31.9761 38.4375 31.9761Z" fill="#FFD900"/>
<path d="M38.4375 25.7109H30.5469C29.8984 25.7109 29.375 26.2344 29.375 26.8828C29.375 27.5312 29.8984 28.0547 30.5469 28.0547H38.4375C39.0859 28.0547 39.6094 27.5312 39.6094 26.8828C39.6094 26.2344 39.0859 25.7109 38.4375 25.7109Z" fill="#FFD900"/>
<path d="M38.4375 19.4219H30.5469C29.8984 19.4219 29.375 19.9453 29.375 20.5938C29.375 21.2422 29.8984 21.7656 30.5469 21.7656H38.4375C39.0859 21.7656 39.6094 21.2422 39.6094 20.5938C39.6094 19.9531 39.0859 19.4219 38.4375 19.4219Z" fill="#FFD900"/>
</svg>
