<svg width="24" height="18" viewBox="0 0 24 18" fill="none" xmlns="http://www.w3.org/2000/svg">
<path d="M16.029 0.239926C15.7512 -0.0068732 15.3543 -0.0709279 15.0142 0.0835572C14.6759 0.236158 14.4567 0.571504 14.4567 0.942645V4.23958H9.05198C5.3386 4.23958 2.1619 6.75844 1.32663 10.3644L0.0245826 15.9899C-0.0774645 16.427 0.145528 16.8753 0.557496 17.06C0.68222 17.1165 0.814503 17.1429 0.946787 17.1429C1.24348 17.1429 1.5345 17.0016 1.71592 16.7491L3.8797 13.7291C5.00789 12.1522 6.84285 11.2103 8.7893 11.2103H14.4567V14.5072C14.4567 14.8783 14.6759 15.2137 15.0142 15.3663C15.3562 15.5189 15.7512 15.4567 16.029 15.2099L23.6825 8.42764C23.8847 8.24866 24 7.99244 24 7.72303C24 7.45363 23.8847 7.19741 23.6825 7.01843L16.029 0.239926ZM16.3465 12.4103V10.2683C16.3465 9.74829 15.9232 9.32629 15.4016 9.32629H8.7893C6.53482 9.32629 4.39371 10.289 2.9008 11.9393L3.16726 10.7901C3.80411 8.04142 6.223 6.12355 9.05009 6.12355H15.4016C15.9232 6.12355 16.3465 5.70154 16.3465 5.18156V3.0395L21.634 7.72303L16.3465 12.4103Z" fill="#979999"/>
</svg>
