<svg width="20" height="19" viewBox="0 0 20 19" fill="none" xmlns="http://www.w3.org/2000/svg">
<path d="M10 14C11.6569 14 13 12.6569 13 11C13 9.34315 11.6569 8 10 8C8.34315 8 7 9.34315 7 11C7 12.6569 8.34315 14 10 14Z" stroke="#979999" stroke-width="2" stroke-linecap="round" stroke-linejoin="round"/>
<path d="M5 5H3C2.46957 5 1.96086 5.21071 1.58579 5.58579C1.21071 5.96086 1 6.46957 1 7V16C1 16.5304 1.21071 17.0391 1.58579 17.4142C1.96086 17.7893 2.46957 18 3 18H17C17.5304 18 18.0391 17.7893 18.4142 17.4142C18.7893 17.0391 19 16.5304 19 16V9M5 5C5.53043 5 6.03914 4.78929 6.41421 4.41421M5 5L6.41421 4.41421M6.41421 4.41421C6.78929 4.03914 7 3.53043 7 3C7 2.73478 7.10536 2.48043 7.29289 2.29289M6.41421 4.41421L7.29289 2.29289M7.29289 2.29289C7.48043 2.10536 7.73478 2 8 2M7.29289 2.29289L8 2M8 2H10" stroke="#979999" stroke-width="2" stroke-linecap="round" stroke-linejoin="round"/>
<path d="M13 4H19" stroke="#979999" stroke-width="2" stroke-linecap="round" stroke-linejoin="round"/>
<path d="M16 1V7" stroke="#979999" stroke-width="2" stroke-linecap="round" stroke-linejoin="round"/>
</svg>
