<svg width="20" height="20" viewBox="0 0 20 20" fill="none" xmlns="http://www.w3.org/2000/svg">
<path d="M4.04159 15.0416H2.66659V4.95825H9.81659L9.08325 5.68241C8.91064 5.85381 8.81319 6.08675 8.81233 6.33001C8.81147 6.57326 8.90727 6.80688 9.07867 6.9795C9.25006 7.15211 9.48301 7.24956 9.72626 7.25042C9.96951 7.25128 10.2031 7.15548 10.3758 6.98408L12.6674 4.69241C12.7533 4.6072 12.8215 4.50581 12.8681 4.39411C12.9146 4.2824 12.9386 4.16259 12.9386 4.04158C12.9386 3.92057 12.9146 3.80076 12.8681 3.68905C12.8215 3.57735 12.7533 3.47596 12.6674 3.39075L10.3758 1.09908C10.204 0.928349 9.97167 0.83252 9.7295 0.83252C9.48733 0.83252 9.255 0.928349 9.08325 1.09908C8.99733 1.1843 8.92914 1.28568 8.8826 1.39738C8.83606 1.50909 8.8121 1.6289 8.8121 1.74991C8.8121 1.87092 8.83606 1.99074 8.8826 2.10244C8.92914 2.21415 8.99733 2.31553 9.08325 2.40075L9.80742 3.12491H1.74992C1.5068 3.12491 1.27365 3.22149 1.10174 3.3934C0.929829 3.56531 0.833252 3.79846 0.833252 4.04158V15.9582C0.833252 16.2014 0.929829 16.4345 1.10174 16.6064C1.27365 16.7783 1.5068 16.8749 1.74992 16.8749H4.04159C4.2847 16.8749 4.51786 16.7783 4.68977 16.6064C4.86167 16.4345 4.95825 16.2014 4.95825 15.9582C4.95825 15.7151 4.86167 15.482 4.68977 15.3101C4.51786 15.1382 4.2847 15.0416 4.04159 15.0416ZM18.2499 3.12491H15.9583C15.7151 3.12491 15.482 3.22149 15.3101 3.3934C15.1382 3.56531 15.0416 3.79846 15.0416 4.04158C15.0416 4.28469 15.1382 4.51785 15.3101 4.68976C15.482 4.86167 15.7151 4.95825 15.9583 4.95825H17.3333V15.0416H9.66075L10.3849 14.3174C10.4708 14.2322 10.539 14.1308 10.5856 14.0191C10.6321 13.9074 10.6561 13.7876 10.6561 13.6666C10.6561 13.5456 10.6321 13.4258 10.5856 13.314C10.539 13.2023 10.4708 13.101 10.3849 13.0157C10.2132 12.845 9.98084 12.7492 9.73867 12.7492C9.4965 12.7492 9.26417 12.845 9.09242 13.0157L6.80075 15.3074C6.71483 15.3926 6.64664 15.494 6.6001 15.6057C6.55356 15.7174 6.5296 15.8372 6.5296 15.9582C6.5296 16.0793 6.55356 16.1991 6.6001 16.3108C6.64664 16.4225 6.71483 16.5239 6.80075 16.6091L9.09242 18.9007C9.26503 19.0721 9.49866 19.1679 9.74191 19.1671C9.98516 19.1662 10.2181 19.0688 10.3895 18.8962C10.5609 18.7236 10.6567 18.4899 10.6558 18.2467C10.655 18.0034 10.5575 17.7705 10.3849 17.5991L9.66075 16.8749H18.2499C18.493 16.8749 18.7262 16.7783 18.8981 16.6064C19.07 16.4345 19.1666 16.2014 19.1666 15.9582V4.04158C19.1666 3.79846 19.07 3.56531 18.8981 3.3934C18.7262 3.22149 18.493 3.12491 18.2499 3.12491Z" fill="white"/>
</svg>
