<svg width="40" height="40" viewBox="0 0 40 40" fill="none" xmlns="http://www.w3.org/2000/svg">
<path d="M10.5938 23.8203H22.6329C23.2814 23.8203 23.8048 23.2969 23.8048 22.6484C23.8048 20.25 22.6017 18.0312 20.586 16.7187L20.211 16.4766L20.5079 16.1406C21.3282 15.2031 21.7813 14 21.7813 12.75C21.7813 9.90625 19.4688 7.58594 16.6173 7.58594C13.7657 7.58594 11.4532 9.89844 11.4532 12.75C11.4532 13.9922 11.9063 15.1953 12.7267 16.1406L13.0235 16.4766L12.6485 16.7187C10.6329 18.0312 9.42977 20.25 9.42977 22.6484C9.42196 23.2891 9.9454 23.8203 10.5938 23.8203ZM16.6173 9.92969C18.172 9.92969 19.4376 11.1953 19.4376 12.75C19.4376 14.3047 18.172 15.5703 16.6173 15.5703C15.0626 15.5703 13.797 14.3047 13.797 12.75C13.797 11.1875 15.0626 9.92969 16.6173 9.92969ZM12.086 20.9453C12.7892 19.1328 14.5626 17.9141 16.5001 17.9141H16.7345C18.672 17.9141 20.4454 19.1328 21.1485 20.9453L21.3517 21.4766H11.8751L12.086 20.9453Z" fill="#FFD900"/>
<path d="M38.3282 32.1484L34.0704 27.8906C33.8517 27.6719 33.5548 27.5469 33.2423 27.5469C32.9298 27.5469 32.6329 27.6719 32.4142 27.8906L30.9767 29.3281L28.0782 26.4297C28.0704 26.4219 28.0548 26.4062 28.047 26.3984C27.5939 25.9453 26.8439 25.9453 26.3907 26.3984C23.7579 29.0312 20.2657 30.4844 16.5548 30.5C16.5314 30.5 16.5079 30.5 16.4923 30.5C12.8048 30.5 9.34387 29.0781 6.75793 26.4844C4.14855 23.875 2.71887 20.3906 2.73449 16.6797C2.75012 12.9688 4.21105 9.47656 6.83605 6.84375C9.47668 4.21094 12.9689 2.75 16.6798 2.73438C16.7032 2.73438 16.7267 2.73438 16.7501 2.73438C20.4298 2.73438 23.8751 4.16406 26.4767 6.75781C29.9454 10.2266 31.2892 15.1562 30.0704 19.9531C29.9142 20.5781 30.2892 21.2188 30.9142 21.375C31.5392 21.5312 32.1798 21.1562 32.3361 20.5312C33.0157 17.8594 33.0079 15.0312 32.3126 12.375C31.5939 9.63281 30.1486 7.11719 28.1329 5.10156C25.0939 2.0625 21.047 0.390625 16.7345 0.390625H16.6642C12.3282 0.40625 8.25012 2.10938 5.1798 5.1875C-1.17176 11.5391 -1.21082 21.8359 5.09387 28.1406C8.12512 31.1719 12.172 32.8438 16.4845 32.8438C20.2892 32.8438 23.9923 31.5078 26.9064 29.0859L27.1798 28.8594L29.3048 30.9844L27.8673 32.4219C27.6486 32.6406 27.5236 32.9375 27.5236 33.25C27.5236 33.5625 27.6486 33.8594 27.8673 34.0781L32.1251 38.3359C32.9689 39.1562 34.0626 39.6094 35.2345 39.6094C36.4064 39.6094 37.5001 39.1562 38.3282 38.3281C39.1564 37.5 39.6095 36.4062 39.6095 35.2344C39.6095 34.0625 39.1486 32.9688 38.3282 32.1484ZM36.672 36.6719C36.2892 37.0547 35.7814 37.2656 35.2345 37.2656C34.6876 37.2656 34.1798 37.0547 33.797 36.6719L30.3673 33.2422L33.2345 30.375L36.6642 33.8047C37.4611 34.5938 37.4611 35.8828 36.672 36.6719Z" fill="#FFD900"/>
</svg>
