<svg width="26" height="19" viewBox="0 0 26 19" fill="none" xmlns="http://www.w3.org/2000/svg">
<path d="M17.029 1.23993C16.7512 0.993127 16.3543 0.929072 16.0142 1.08356C15.6759 1.23616 15.4567 1.5715 15.4567 1.94265V5.23958H10.052C6.3386 5.23958 3.1619 7.75844 2.32663 11.3644L1.02458 16.9899C0.922535 17.427 1.14553 17.8753 1.5575 18.06C1.68222 18.1165 1.8145 18.1429 1.94679 18.1429C2.24348 18.1429 2.5345 18.0016 2.71592 17.7491L4.8797 14.7291C6.00789 13.1522 7.84285 12.2103 9.7893 12.2103H15.4567V15.5072C15.4567 15.8783 15.6759 16.2137 16.0142 16.3663C16.3562 16.5189 16.7512 16.4567 17.029 16.2099L24.6825 9.42764C24.8847 9.24866 25 8.99244 25 8.72303C25 8.45363 24.8847 8.19741 24.6825 8.01843L17.029 1.23993ZM17.3465 13.4103V11.2683C17.3465 10.7483 16.9232 10.3263 16.4016 10.3263H9.7893C7.53482 10.3263 5.39371 11.289 3.9008 12.9393L4.16726 11.7901C4.80411 9.04142 7.223 7.12355 10.0501 7.12355H16.4016C16.9232 7.12355 17.3465 6.70154 17.3465 6.18156V4.0395L22.634 8.72303L17.3465 13.4103Z" fill="white" stroke="white" stroke-width="0.2"/>
</svg>
