<svg width="19" height="20" viewBox="0 0 19 20" fill="none" xmlns="http://www.w3.org/2000/svg">
<path d="M18.0527 1L17.1053 1.94737" stroke="#25272E" stroke-width="1.5" stroke-linecap="round" stroke-linejoin="round"/>
<path d="M1 1L1.94737 1.94737" stroke="#25272E" stroke-width="1.5" stroke-linecap="round" stroke-linejoin="round"/>
<path d="M18.0527 14.2632L17.1053 13.3158" stroke="#25272E" stroke-width="1.5" stroke-linecap="round" stroke-linejoin="round"/>
<path d="M1 14.2632L1.94737 13.3158" stroke="#25272E" stroke-width="1.5" stroke-linecap="round" stroke-linejoin="round"/>
<path d="M6.6842 16.1578H12.3684" stroke="#25272E" stroke-width="1.5" stroke-linecap="round" stroke-linejoin="round"/>
<path d="M7.63159 19H11.4211" stroke="#25272E" stroke-width="1.5" stroke-linecap="round" stroke-linejoin="round"/>
<path d="M9.52618 1.94739C5.7367 1.94739 3.79649 3.79476 3.84197 6.68423C3.86376 8.09297 4.31565 9.05265 5.26302 10C6.21039 10.9474 6.68407 11.4211 6.68407 13.3158H12.3683C12.3683 11.4211 12.842 10.9474 13.7893 10C14.7367 9.05265 15.1886 8.09297 15.2104 6.68423C15.2559 3.79476 13.3157 1.94739 9.52618 1.94739Z" stroke="#25272E" stroke-width="1.5" stroke-linecap="round" stroke-linejoin="round"/>
</svg>
