<svg width="20" height="20" viewBox="0 0 20 20" fill="none" xmlns="http://www.w3.org/2000/svg">
<path d="M7.77565 10.1701C7.73888 9.49961 8.75694 9.4438 8.79397 10.114C8.96616 13.246 10.9793 16.0211 13.9409 17.1368C14.3583 17.2939 14.3871 17.8742 13.9819 18.0734C8.30888 20.8734 1.44141 17.0254 1.02006 10.5907C0.591835 4.04748 7.09641 -0.708231 13.1844 1.58419C13.6026 1.74157 13.6274 2.32267 13.2304 2.51867C11.1832 3.52959 9.6573 5.36178 9.05636 7.60738C8.88284 8.25699 7.89679 7.99276 8.0703 7.34394C8.63792 5.22212 9.94772 3.41532 11.731 2.21317C6.49785 1.04778 1.66941 5.30729 2.04156 10.5677C2.40921 15.7659 7.59261 19.1909 12.479 17.5885C9.73744 16.1076 7.94757 13.2859 7.77565 10.1701ZM15.695 6.20738L16.62 7.86103L18.485 8.23107C18.8624 8.3054 19.0624 8.78149 18.7302 9.11027L17.4704 10.4719L17.6949 12.3628C17.7409 12.7503 17.3426 13.0669 16.9527 12.876L15.2478 12.0888L13.5211 12.8857C13.1561 13.0542 12.7551 12.7479 12.8009 12.3628H12.8003L13.0252 10.4719L11.7352 9.07747C11.4628 8.78308 11.6244 8.30804 12.0111 8.23292L12.0106 8.23107L13.8755 7.86103L14.8026 6.20368C14.9999 5.84978 15.5059 5.85983 15.695 6.20738ZM15.8458 8.56381L15.2478 7.4947L14.6656 8.53525C14.5984 8.67649 14.4675 8.7852 14.3024 8.8172L13.1008 9.05578L13.9023 9.92202C14.0205 10.0291 14.0869 10.19 14.0668 10.3606L13.9221 11.5773L15.034 11.0639C15.165 11.0038 15.3202 10.9988 15.4615 11.0639L16.5732 11.5773L16.4288 10.3606L16.4309 10.3603C16.4139 10.2177 16.4573 10.0688 16.5626 9.95535L17.3947 9.05578L16.1931 8.8172L16.1934 8.81614C16.0513 8.78837 15.9217 8.70029 15.8458 8.56381Z" fill="#FFD900" stroke="#FFD900" stroke-width="0.4"/>
</svg>
