<svg width="18" height="18" viewBox="0 0 18 18" fill="none" xmlns="http://www.w3.org/2000/svg">
<path d="M16.5 10.6667C16.2789 10.6667 16.067 10.7545 15.9107 10.9108C15.7544 11.0671 15.6666 11.2791 15.6666 11.5001V14.8334C15.6666 15.0544 15.5788 15.2664 15.4225 15.4227C15.2663 15.579 15.0543 15.6667 14.8333 15.6667H3.16663C2.94561 15.6667 2.73365 15.579 2.57737 15.4227C2.42109 15.2664 2.33329 15.0544 2.33329 14.8334V11.5001C2.33329 11.2791 2.2455 11.0671 2.08922 10.9108C1.93293 10.7545 1.72097 10.6667 1.49996 10.6667C1.27895 10.6667 1.06698 10.7545 0.910704 10.9108C0.754423 11.0671 0.666626 11.2791 0.666626 11.5001V14.8334C0.666626 15.4965 0.930018 16.1323 1.39886 16.6012C1.8677 17.07 2.50358 17.3334 3.16663 17.3334H14.8333C15.4963 17.3334 16.1322 17.07 16.6011 16.6012C17.0699 16.1323 17.3333 15.4965 17.3333 14.8334V11.5001C17.3333 11.2791 17.2455 11.0671 17.0892 10.9108C16.9329 10.7545 16.721 10.6667 16.5 10.6667ZM8.40829 12.0917C8.48755 12.1676 8.581 12.2271 8.68329 12.2667C8.78304 12.3108 8.8909 12.3336 8.99996 12.3336C9.10902 12.3336 9.21688 12.3108 9.31663 12.2667C9.41892 12.2271 9.51237 12.1676 9.59163 12.0917L12.925 8.75842C13.0819 8.6015 13.17 8.38867 13.17 8.16675C13.17 7.94483 13.0819 7.732 12.925 7.57508C12.768 7.41816 12.5552 7.33001 12.3333 7.33001C12.1114 7.33001 11.8985 7.41816 11.7416 7.57508L9.83329 9.49175V1.50008C9.83329 1.27907 9.7455 1.06711 9.58922 0.910826C9.43293 0.754545 9.22097 0.666748 8.99996 0.666748C8.77895 0.666748 8.56698 0.754545 8.4107 0.910826C8.25442 1.06711 8.16663 1.27907 8.16663 1.50008V9.49175L6.25829 7.57508C6.18059 7.49738 6.08835 7.43575 5.98683 7.3937C5.88532 7.35165 5.77651 7.33001 5.66663 7.33001C5.55674 7.33001 5.44794 7.35165 5.34642 7.3937C5.2449 7.43575 5.15266 7.49738 5.07496 7.57508C4.99726 7.65278 4.93563 7.74502 4.89358 7.84654C4.85153 7.94806 4.82988 8.05687 4.82988 8.16675C4.82988 8.27663 4.85153 8.38544 4.89358 8.48696C4.93563 8.58847 4.99726 8.68072 5.07496 8.75842L8.40829 12.0917Z" fill="#979999"/>
</svg>
