<svg width="21" height="16" viewBox="0 0 21 16" fill="none" xmlns="http://www.w3.org/2000/svg">
<path d="M16.9044 12.0349C16.9044 13.2768 16.6356 14.4712 16.1385 15.5914C19.0314 13.6521 20.867 10.8837 20.9426 7.80323L20.9986 7.74023V0.355469H11.4688V9.91351H16.6369C16.812 10.601 16.9044 11.3095 16.9044 12.0349Z" fill="#FFD900"/>
<path d="M5.20744 9.91356C5.39228 10.6178 5.48889 11.3447 5.48889 12.088C5.48889 13.3301 5.21864 14.5258 4.72158 15.646C7.65218 13.6815 9.49769 10.8684 9.52847 7.74027H9.52986V7.70245C9.52986 7.68704 9.52986 7.67306 9.52986 7.65765C9.52986 7.64223 9.52986 7.62682 9.52986 7.61145V0.355469H0V9.91351H5.20744V9.91356Z" fill="#FFD900"/>
</svg>
