<svg width="29" height="29" viewBox="0 0 29 29" fill="none" xmlns="http://www.w3.org/2000/svg">
<path d="M28.4271 21.3614V25.5945C28.4287 25.9874 28.3481 26.3764 28.1903 26.7365C28.0326 27.0966 27.8012 27.4198 27.5111 27.6854C27.2209 27.9511 26.8784 28.1534 26.5054 28.2793C26.1324 28.4052 25.7371 28.4519 25.345 28.4165C20.9944 27.9447 16.8153 26.4611 13.1436 24.0847C9.72749 21.9183 6.83126 19.0278 4.66055 15.6185C2.27113 11.9374 0.784151 7.74629 0.320069 3.38479C0.284738 2.99459 0.331203 2.60132 0.456505 2.23003C0.581807 1.85874 0.783201 1.51755 1.04786 1.22819C1.31253 0.938832 1.63466 0.707643 1.99376 0.549343C2.35285 0.391043 2.74104 0.3091 3.1336 0.308731H7.37511C8.06125 0.301991 8.72644 0.544484 9.24669 0.991012C9.76694 1.43754 10.1067 2.05763 10.2028 2.73571C10.3818 4.0904 10.7138 5.42052 11.1925 6.70072C11.3827 7.20576 11.4239 7.75464 11.3111 8.28232C11.1983 8.81 10.9364 9.29436 10.5562 9.678L8.76067 11.47C10.7733 15.0026 13.7041 17.9275 17.2437 19.9362L19.0393 18.1442C19.4237 17.7648 19.909 17.5034 20.4377 17.3908C20.9664 17.2783 21.5164 17.3194 22.0224 17.5092C23.3052 17.9869 24.638 18.3183 25.9953 18.497C26.6821 18.5937 27.3093 18.9389 27.7577 19.467C28.2061 19.9952 28.4443 20.6694 28.4271 21.3614Z" fill="white"/>
</svg>
