<svg width="129" height="107" viewBox="0 0 129 107" fill="none" xmlns="http://www.w3.org/2000/svg">
<path d="M1 94.3333H0.5H1ZM12.5455 18.5V18V18.5ZM35.6364 18.5V19C35.8044 19 35.9612 18.9156 36.0537 18.7753L35.6364 18.5ZM47.1818 1V0.5C47.0138 0.5 46.857 0.584399 46.7645 0.724654L47.1818 1ZM81.8182 1L82.2355 0.724654C82.143 0.584399 81.9862 0.5 81.8182 0.5V1ZM93.3636 18.5L92.9463 18.7753C93.0388 18.9156 93.1956 19 93.3636 19V18.5ZM116.455 18.5V18V18.5ZM127.5 94.3333C127.5 97.2966 126.335 100.137 124.263 102.231L124.974 102.935C127.232 100.653 128.5 97.5585 128.5 94.3333H127.5ZM124.263 102.231C122.191 104.325 119.382 105.5 116.455 105.5V106.5C119.651 106.5 122.715 105.217 124.974 102.935L124.263 102.231ZM116.455 105.5H12.5455V106.5H116.455V105.5ZM12.5455 105.5C9.61771 105.5 6.80882 104.325 4.73698 102.231L4.02619 102.935C6.28474 105.217 9.34911 106.5 12.5455 106.5V105.5ZM4.73698 102.231C2.66497 100.137 1.5 97.2966 1.5 94.3333H0.5C0.5 97.5585 1.76782 100.653 4.02619 102.935L4.73698 102.231ZM1.5 94.3333V30.1667H0.5V94.3333H1.5ZM1.5 30.1667C1.5 27.2034 2.66497 24.3626 4.73698 22.2688L4.02619 21.5654C1.76782 23.8475 0.5 26.9415 0.5 30.1667H1.5ZM4.73698 22.2688C6.80882 20.1752 9.61771 19 12.5455 19V18C9.34911 18 6.28474 19.2831 4.02619 21.5654L4.73698 22.2688ZM12.5455 19H35.6364V18H12.5455V19ZM36.0537 18.7753L47.5992 1.27535L46.7645 0.724654L35.219 18.2247L36.0537 18.7753ZM47.1818 1.5H81.8182V0.5H47.1818V1.5ZM81.4008 1.27535L92.9463 18.7753L93.781 18.2247L82.2355 0.724654L81.4008 1.27535ZM93.3636 19H116.455V18H93.3636V19ZM116.455 19C119.382 19 122.191 20.1752 124.263 22.2688L124.974 21.5654C122.715 19.2831 119.651 18 116.455 18V19ZM124.263 22.2688C126.335 24.3626 127.5 27.2034 127.5 30.1667H128.5C128.5 26.9415 127.232 23.8475 124.974 21.5654L124.263 22.2688ZM127.5 30.1667V94.3333H128.5V30.1667H127.5ZM87.0909 59.3333C87.0909 71.9488 76.9717 82.1667 64.5 82.1667V83.1667C77.5338 83.1667 88.0909 72.4912 88.0909 59.3333H87.0909ZM64.5 82.1667C52.0283 82.1667 41.9091 71.9488 41.9091 59.3333H40.9091C40.9091 72.4912 51.4662 83.1667 64.5 83.1667V82.1667ZM41.9091 59.3333C41.9091 46.7179 52.0283 36.5 64.5 36.5V35.5C51.4662 35.5 40.9091 46.1755 40.9091 59.3333H41.9091ZM64.5 36.5C76.9717 36.5 87.0909 46.7179 87.0909 59.3333H88.0909C88.0909 46.1755 77.5338 35.5 64.5 35.5V36.5Z" fill="#5E5E5E"/>
</svg>
