<svg width="12" height="9" viewBox="0 0 12 9" fill="none" xmlns="http://www.w3.org/2000/svg">
<path d="M11.7134 1.70071C12.1004 1.30668 12.0947 0.673542 11.7007 0.286552C11.3067 -0.100438 10.6735 -0.0947345 10.2866 0.299292L11.7134 1.70071ZM4.125 8L3.41155 8.70071C3.59958 8.89215 3.85666 9 4.125 9C4.39334 9 4.65042 8.89215 4.83845 8.70071L4.125 8ZM1.71345 4.11747C1.32646 3.72345 0.693318 3.71774 0.299292 4.10473C-0.0947345 4.49172 -0.100438 5.12486 0.286552 5.51889L1.71345 4.11747ZM10.2866 0.299292L3.41155 7.29929L4.83845 8.70071L11.7134 1.70071L10.2866 0.299292ZM4.83845 7.29929L1.71345 4.11747L0.286552 5.51889L3.41155 8.70071L4.83845 7.29929Z" fill="#6EAAF0"/>
</svg>
