<svg width="30" height="27" viewBox="0 0 30 27" fill="none" xmlns="http://www.w3.org/2000/svg">
<path d="M4.28571 2.07692V24.9231H17.1429V2.07692H4.28571ZM3.21429 0H18.2143C18.4984 0 18.771 0.109409 18.9719 0.304158C19.1728 0.498908 19.2857 0.763044 19.2857 1.03846V25.9615C19.2857 26.237 19.1728 26.5011 18.9719 26.6958C18.771 26.8906 18.4984 27 18.2143 27H3.21429C2.93012 27 2.6576 26.8906 2.45667 26.6958C2.25574 26.5011 2.14286 26.237 2.14286 25.9615V1.03846C2.14286 0.763044 2.25574 0.498908 2.45667 0.304158C2.6576 0.109409 2.93012 0 3.21429 0Z" fill="#6EAAF0"/>
<path d="M6.42857 6.23077H15V8.30769H6.42857V6.23077ZM6.42857 12.4615H15V14.5385H6.42857V12.4615ZM6.42857 18.6923H15V20.7692H6.42857V18.6923ZM0 24.9231H30V27H0V24.9231Z" fill="#6EAAF0"/>
<path d="M19.2857 10.3846V24.9231H25.7143V10.3846H19.2857ZM18.2143 8.30769H26.7857C27.0699 8.30769 27.3424 8.4171 27.5433 8.61185C27.7443 8.8066 27.8571 9.07074 27.8571 9.34615V25.9615C27.8571 26.237 27.7443 26.5011 27.5433 26.6958C27.3424 26.8906 27.0699 27 26.7857 27H18.2143C17.9301 27 17.6576 26.8906 17.4567 26.6958C17.2557 26.5011 17.1429 26.237 17.1429 25.9615V9.34615C17.1429 9.07074 17.2557 8.8066 17.4567 8.61185C17.6576 8.4171 17.9301 8.30769 18.2143 8.30769Z" fill="#6EAAF0"/>
</svg>