<svg width="16" height="15" viewBox="0 0 16 15" fill="none" xmlns="http://www.w3.org/2000/svg">
<path d="M5.77105 6.4207C5.57384 6.2274 5.25727 6.23058 5.06397 6.42778C4.87068 6.62499 4.87385 6.94156 5.07106 7.13486L5.77105 6.4207ZM7.63158 8.94444L7.28159 9.30152C7.47601 9.49208 7.78715 9.49208 7.98157 9.30152L7.63158 8.94444ZM15.35 2.0793C15.5472 1.886 15.5504 1.56944 15.3571 1.37223C15.1638 1.17502 14.8472 1.17185 14.65 1.36514L15.35 2.0793ZM14.7632 7.5C14.7632 7.22386 14.5393 7 14.2632 7C13.987 7 13.7632 7.22386 13.7632 7.5H14.7632ZM1 12.5556H0.5H1ZM2.47368 1V0.5V1ZM10.5789 1.5C10.8551 1.5 11.0789 1.27614 11.0789 1C11.0789 0.723858 10.8551 0.5 10.5789 0.5V1.5ZM5.07106 7.13486L7.28159 9.30152L7.98157 8.58737L5.77105 6.4207L5.07106 7.13486ZM7.98157 9.30152L15.35 2.0793L14.65 1.36514L7.28159 8.58737L7.98157 9.30152ZM13.7632 7.5V12.5556H14.7632V7.5H13.7632ZM13.7632 12.5556C13.7632 12.8028 13.6631 13.0419 13.4815 13.2199L14.1815 13.934C14.5527 13.5702 14.7632 13.0745 14.7632 12.5556H13.7632ZM13.4815 13.2199C13.2997 13.3981 13.0509 13.5 12.7895 13.5V14.5C13.3097 14.5 13.8106 14.2975 14.1815 13.934L13.4815 13.2199ZM12.7895 13.5H2.47368V14.5H12.7895V13.5ZM2.47368 13.5C2.21225 13.5 1.96349 13.3981 1.78163 13.2199L1.08164 13.934C1.45251 14.2975 1.95343 14.5 2.47368 14.5V13.5ZM1.78163 13.2199C1.6001 13.0419 1.5 12.8028 1.5 12.5556H0.5C0.5 13.0745 0.710427 13.5702 1.08164 13.934L1.78163 13.2199ZM1.5 12.5556V2.44444H0.5V12.5556H1.5ZM1.5 2.44444C1.5 2.19723 1.6001 1.95807 1.78163 1.78015L1.08164 1.06599C0.710427 1.42984 0.5 1.92548 0.5 2.44444H1.5ZM1.78163 1.78015C1.96349 1.60189 2.21225 1.5 2.47368 1.5V0.5C1.95343 0.5 1.45251 0.702476 1.08164 1.06599L1.78163 1.78015ZM2.47368 1.5H10.5789V0.5H2.47368V1.5Z" fill="#6EAAF0"/>
</svg>
