<svg width="48" height="42" viewBox="0 0 48 42" fill="none" xmlns="http://www.w3.org/2000/svg">
<path d="M34.35 37.5714L35.0549 36.8621C34.8675 36.6759 34.6141 36.5714 34.35 36.5714V37.5714ZM21.7 37.5714H20.7C20.7 38.1237 21.1477 38.5714 21.7 38.5714V37.5714ZM21.7 28.4286V27.4286C21.1477 27.4286 20.7 27.8763 20.7 28.4286H21.7ZM37.8 28.4286V29.4286C38.3523 29.4286 38.8 28.9809 38.8 28.4286H37.8ZM37.8 19.2857V18.2857C37.2477 18.2857 36.8 18.7334 36.8 19.2857H37.8ZM47 19.2857H48C48 18.7334 47.5523 18.2857 47 18.2857V19.2857ZM47 37.5714V38.5714C47.5523 38.5714 48 38.1237 48 37.5714H47ZM41.25 37.5714V36.5714C40.9859 36.5714 40.7325 36.6759 40.5451 36.8621L41.25 37.5714ZM37.8 41L37.0951 41.7093C37.4851 42.0969 38.1149 42.0969 38.5049 41.7093L37.8 41ZM1 1V0C0.447715 0 0 0.447715 0 1L1 1ZM37.8 1H38.8C38.8 0.447715 38.3523 0 37.8 0V1ZM15.95 28.4286V27.4286C15.6859 27.4286 15.4325 27.5331 15.2451 27.7193L15.95 28.4286ZM11.35 33L10.6451 33.7093C11.0351 34.0969 11.6649 34.0969 12.0549 33.7093L11.35 33ZM6.75 28.4286L7.4549 27.7193C7.26755 27.5331 7.01414 27.4286 6.75 27.4286V28.4286ZM1 28.4286H0C0 28.9809 0.447715 29.4286 1 29.4286L1 28.4286ZM34.35 36.5714H21.7V38.5714H34.35V36.5714ZM22.7 37.5714V28.4286H20.7V37.5714H22.7ZM21.7 29.4286H37.8V27.4286H21.7V29.4286ZM38.8 28.4286V19.2857H36.8V28.4286H38.8ZM37.8 20.2857H47V18.2857H37.8V20.2857ZM46 19.2857V37.5714H48V19.2857H46ZM47 36.5714H41.25V38.5714H47V36.5714ZM40.5451 36.8621L37.0951 40.2907L38.5049 41.7093L41.9549 38.2807L40.5451 36.8621ZM38.5049 40.2907L35.0549 36.8621L33.6451 38.2807L37.0951 41.7093L38.5049 40.2907ZM1 2H37.8V0H1V2ZM36.8 1V28.4286H38.8V1H36.8ZM37.8 27.4286H15.95V29.4286H37.8V27.4286ZM15.2451 27.7193L10.6451 32.2907L12.0549 33.7093L16.6549 29.1379L15.2451 27.7193ZM12.0549 32.2907L7.4549 27.7193L6.0451 29.1379L10.6451 33.7093L12.0549 32.2907ZM6.75 27.4286H1V29.4286H6.75V27.4286ZM2 28.4286V1H0V28.4286H2Z" fill="#6EAAF0"/>
<circle cx="12" cy="15" r="2" fill="#6EAAF0"/>
<circle cx="12" cy="15" r="2" fill="#6EAAF0"/>
<circle cx="20" cy="15" r="2" fill="#6EAAF0"/>
<circle cx="20" cy="15" r="2" fill="#6EAAF0"/>
<circle cx="28" cy="15" r="2" fill="#6EAAF0"/>
<circle cx="28" cy="15" r="2" fill="#6EAAF0"/>
</svg>
