<svg width="42" height="42" viewBox="0 0 42 42" fill="none" xmlns="http://www.w3.org/2000/svg">
<path d="M7.57812 3.56951V9.48065C7.57812 10.166 7.85204 11.6395 8.94771 12.0507C10.0434 12.4619 11.2303 12.5647 11.6869 12.5647C12.7825 12.4791 14.426 12.3077 14.9739 11.5367C15.4121 10.9199 15.5217 9.73766 15.5217 9.22364V3.3125" stroke="#6EAAF0" stroke-width="2"/>
<path d="M7.57686 3.57087V3.08094C7.57686 2.29155 6.71337 1.82608 6.09653 2.31867C1.61637 5.89645 -2.90439 13.0257 6.59682 19.9674C6.86047 20.1601 7.02902 20.4708 7.02902 20.7973V36.7247C7.02914 37.667 7.35807 39.7059 8.67287 40.3228C10.3164 41.0938 12.2338 41.3508 14.1512 40.3228C16.0686 39.0377 16.0686 37.2387 16.0686 36.7247V20.8385C16.0686 20.4894 16.2519 20.1676 16.5435 19.9755C21.1885 16.9163 26.856 9.72184 17.0427 2.32403C16.4082 1.84575 15.5208 2.31128 15.5208 3.10581V4.08488" stroke="#6EAAF0" stroke-width="2"/>
<path d="M36.3331 1H32.0253C31.6469 1 31.301 1.2135 31.1314 1.55168L29.4564 4.89131C29.3067 5.18985 29.3159 5.54344 29.4809 5.8338L31.2775 8.99438C31.3631 9.14501 31.4081 9.31529 31.4081 9.48855V21.3315C31.4081 21.8838 30.9604 22.3315 30.4081 22.3315H29.1211C28.5688 22.3315 28.1211 22.7792 28.1211 23.3315V33.6398C28.1211 35.9528 29.4359 40.6304 34.6951 40.836C39.9543 41.0416 41.0865 36.1242 40.9952 33.6398V23.3315C40.9952 22.7792 40.5475 22.3315 39.9952 22.3315H38.4343C37.882 22.3315 37.4343 21.8838 37.4343 21.3315V21.3035V9.48855C37.4343 9.31529 37.4793 9.14501 37.5649 8.99438L39.3304 5.88838C39.5122 5.56855 39.5037 5.17473 39.3083 4.86303L37.1803 1.46882C36.9975 1.17711 36.6774 1 36.3331 1Z" stroke="#6EAAF0" stroke-width="2"/>
<path d="M28.1211 27.9844H40.9952" stroke="#6EAAF0" stroke-width="2"/>
<path d="M30.8594 22.332H37.7073" stroke="#6EAAF0" stroke-width="2"/>
</svg>
