<svg width="43" height="43" viewBox="0 0 43 43" fill="none" xmlns="http://www.w3.org/2000/svg">
<path d="M10.5667 17.4L1.70711 8.54044C1.31658 8.14992 1.31658 7.51675 1.70711 7.12623L7.12623 1.70711C7.51675 1.31658 8.14992 1.31658 8.54044 1.70711L17.4 10.5667" stroke="#6EAAF0" stroke-width="2"/>
<path d="M41.2929 10.6796L31.8867 1.27333C31.7357 1.12238 31.491 1.12237 31.34 1.27333L1.70711 30.9062C1.31658 31.2968 1.31658 31.9299 1.70711 32.3204L10.6796 41.2929C11.0701 41.6834 11.7032 41.6834 12.0938 41.2929L41.2929 12.0938C41.6834 11.7032 41.6834 11.0701 41.2929 10.6796Z" stroke="#6EAAF0" stroke-width="2"/>
<path d="M9.74805 23.1406L13.848 27.2406" stroke="#6EAAF0" stroke-width="2"/>
<path d="M16.5801 16.0332L20.6801 20.1332" stroke="#6EAAF0" stroke-width="2"/>
<path d="M23.6855 9.19922L27.2389 12.7526" stroke="#6EAAF0" stroke-width="2"/>
<path d="M25.6016 32.9817L33.5087 40.8888C33.6962 41.0763 33.9506 41.1817 34.2158 41.1817H40.4549C41.0072 41.1817 41.4549 40.734 41.4549 40.1817V34.7625C41.4549 34.4973 41.3495 34.243 41.162 34.0554L32.9816 25.875" stroke="#6EAAF0" stroke-width="2"/>
</svg>
