<svg width="38" height="43" viewBox="0 0 38 43" fill="none" xmlns="http://www.w3.org/2000/svg">
<path d="M32.725 12.025V36.9C32.725 37.4523 32.2773 37.9 31.725 37.9H2C1.44772 37.9 1 37.4523 1 36.9V2C1 1.44772 1.44772 1 2 1H21.7M32.725 12.025L21.7 1M32.725 12.025H22.7C22.1477 12.025 21.7 11.5773 21.7 11.025V1" stroke="#6EAAF0" stroke-width="2"/>
<path d="M37.0004 15.625V40.5C37.0004 41.0523 36.5527 41.5 36.0004 41.5H6.27539C5.72311 41.5 5.27539 41.0523 5.27539 40.5V39.475" stroke="#6EAAF0" stroke-width="2"/>
<path d="M8.42578 12.0254H15.1758" stroke="#6EAAF0" stroke-width="2"/>
<path d="M8.42578 20.8008H25.5258" stroke="#6EAAF0" stroke-width="2"/>
<path d="M8.42578 29.125H25.5258" stroke="#6EAAF0" stroke-width="2"/>
</svg>
