<svg width="30" height="32" viewBox="0 0 30 32" fill="none" xmlns="http://www.w3.org/2000/svg">
<path d="M14.2104 0.00373759C11.6738 0.0347423 6.22031 0.456807 3.17006 3.29024C0.901138 5.56658 0.108942 8.9321 0.0160912 13.0937C-0.0609553 17.2404 -0.153806 25.0275 7.25945 27.1479V30.3774C7.25945 30.3774 7.21302 31.6696 8.05658 31.9346C9.09572 32.2676 9.6874 31.2735 10.6752 30.2053L12.5174 28.096C17.5896 28.5231 21.4745 27.5389 21.922 27.3929C22.9512 27.0599 28.7485 26.3097 29.6958 18.5216C30.6678 10.4783 29.2226 5.41056 26.6139 3.11821H26.5981C25.8109 2.3841 22.647 0.0497446 15.5785 0.0237406C15.5785 0.0237406 15.054 -0.0112647 14.2104 0.00373759ZM14.2973 2.26508C15.0174 2.26008 15.455 2.29109 15.455 2.29109C21.438 2.30709 24.2936 4.13036 24.9673 4.74446C27.1641 6.65075 28.2961 11.2194 27.4674 17.9345C26.6801 24.4455 21.9783 24.8575 21.1081 25.1386C20.7376 25.2586 17.316 26.1127 13.0053 25.8317C13.0053 25.8317 9.79507 29.7543 8.79149 30.7644C8.63246 30.9414 8.44675 30.9935 8.32822 30.9674C8.15832 30.9254 8.10696 30.7124 8.11684 30.4204L8.14746 25.0605C1.86027 23.3003 2.23068 16.6583 2.29785 13.1887C2.3749 9.71922 3.01794 6.88078 4.93225 4.95849C7.50936 2.59913 12.14 2.28108 14.2954 2.26508H14.2973ZM14.7715 5.73361C14.7197 5.73308 14.6684 5.74293 14.6204 5.76258C14.5725 5.78224 14.5288 5.81131 14.492 5.84813C14.4552 5.88495 14.4259 5.92878 14.4059 5.9771C14.3859 6.02542 14.3755 6.07727 14.3754 6.12967C14.3754 6.3537 14.5552 6.53073 14.7715 6.53073C15.7509 6.51187 16.7242 6.68952 17.6355 7.05344C18.5467 7.41735 19.3778 7.96033 20.0808 8.65105C21.516 10.0623 22.2154 11.9586 22.242 14.4379C22.242 14.657 22.4169 14.839 22.6381 14.839V14.823C22.7424 14.8233 22.8426 14.7818 22.9168 14.7076C22.991 14.6334 23.0332 14.5325 23.0342 14.4269C23.0822 13.2599 22.8953 12.0952 22.4848 11.0036C22.0744 9.91196 21.4491 8.91625 20.6468 8.07697C19.0831 6.52973 17.1016 5.73261 14.7715 5.73261V5.73361ZM9.56492 6.65075C9.28532 6.60938 9.00017 6.66621 8.75692 6.81177H8.73617C8.17142 7.14696 7.66267 7.57061 7.22883 8.06696C6.86829 8.48903 6.67271 8.91609 6.62135 9.32716C6.59072 9.57219 6.61147 9.81723 6.68358 10.0513L6.70926 10.0673C7.11523 11.2755 7.64567 12.4376 8.29365 13.5318C9.12834 15.069 10.1556 16.4906 11.3498 17.7614L11.3854 17.8134L11.4417 17.8555L11.4773 17.8975L11.5187 17.9335C12.7784 19.1462 14.1858 20.1912 15.7069 21.0429C17.4454 22.0011 18.5003 22.4542 19.1335 22.6422V22.6522C19.3192 22.7092 19.4881 22.7352 19.658 22.7352C20.1976 22.6952 20.7085 22.4733 21.109 22.1051C21.597 21.6657 22.0108 21.1485 22.3339 20.5739V20.5639C22.6371 19.9858 22.5344 19.4387 22.0968 19.0686C21.2205 18.293 20.2728 17.6041 19.2668 17.0113C18.5932 16.6413 17.9087 16.8653 17.6311 17.2404L17.0394 17.9955C16.7362 18.3705 16.185 18.3185 16.185 18.3185L16.1692 18.3285C12.059 17.2654 10.9626 13.0517 10.9626 13.0517C10.9626 13.0517 10.9113 12.4786 11.2915 12.1866L12.0324 11.5825C12.387 11.2905 12.6339 10.5983 12.2536 9.91525C11.6722 8.89524 10.9933 7.93549 10.2267 7.04981C10.0591 6.84101 9.82401 6.69895 9.56294 6.64875L9.56492 6.65075ZM15.455 7.83893C14.9305 7.83893 14.9305 8.64105 15.46 8.64105C16.1122 8.65176 16.7559 8.79251 17.3544 9.05525C17.9528 9.31798 18.4943 9.69756 18.9478 10.1723C19.3615 10.6344 19.6794 11.1758 19.8827 11.7646C20.0859 12.3533 20.1704 12.9774 20.1311 13.5998C20.133 13.7051 20.1754 13.8056 20.2495 13.8796C20.3235 13.9536 20.4232 13.9954 20.5272 13.9959L20.5431 14.0169C20.6479 14.0161 20.7482 13.9736 20.8223 13.8985C20.8964 13.8235 20.9384 13.7219 20.9391 13.6158C20.9747 12.0266 20.4867 10.6934 19.5296 9.6252C18.5675 8.55704 17.2251 7.95795 15.5113 7.83893H15.455ZM16.104 9.99526C15.5637 9.97925 15.5429 10.7974 16.0783 10.8134C17.3802 10.8814 18.0124 11.5475 18.0953 12.9177C18.0972 13.0217 18.1391 13.1209 18.2122 13.194C18.2853 13.267 18.3838 13.3083 18.4865 13.3088H18.5023C18.5551 13.3065 18.607 13.2935 18.6548 13.2707C18.7026 13.2479 18.7455 13.2157 18.7809 13.176C18.8163 13.1362 18.8435 13.0897 18.861 13.0392C18.8785 12.9887 18.8858 12.9351 18.8826 12.8817C18.7898 11.0954 17.8277 10.0893 16.1198 9.99626H16.104V9.99526Z" fill="white"/>
</svg>
