<svg width="20" height="20" viewBox="0 0 20 20" fill="none" xmlns="http://www.w3.org/2000/svg">
<path d="M20 17.7778V2.22222C20 1 18.9967 0 17.7722 0H2.22778C0.95 0 0 0.947778 0 2.22222V17.7778C0 19.0533 0.95 20 2.22778 20H17.7722C18.3618 19.9991 18.9271 19.7649 19.3446 19.3485C19.762 18.9321 19.9977 18.3674 20 17.7778ZM15.76 11.7856C15.76 11.7856 17.0178 13.0267 17.3278 13.6022C17.3367 13.6144 17.34 13.6256 17.3433 13.63C17.4689 13.8411 17.5011 14.0078 17.4378 14.13C17.3333 14.3333 16.9778 14.4356 16.8567 14.4444H14.6356C14.48 14.4444 14.1578 14.4044 13.7667 14.1344C13.4667 13.9256 13.17 13.58 12.8811 13.2433C12.45 12.7433 12.0767 12.31 11.7011 12.31C11.6535 12.3099 11.6061 12.3178 11.5611 12.3333C11.2756 12.4244 10.9133 12.83 10.9133 13.9133C10.9133 14.2522 10.6467 14.4456 10.4578 14.4456H9.44C9.09333 14.4456 7.28778 14.3244 5.68889 12.6367C3.72667 10.57 1.96444 6.42444 1.94889 6.38778C1.83778 6.12 2.06778 5.97444 2.31778 5.97444H4.56222C4.86333 5.97444 4.96 6.15667 5.02889 6.32C5.10667 6.50556 5.4 7.25444 5.88 8.09667C6.66111 9.46667 7.14222 10.0244 7.52556 10.0244C7.59723 10.024 7.66761 10.0053 7.73 9.97C8.23111 9.69333 8.13778 7.90667 8.11556 7.53778C8.11556 7.46778 8.11444 6.73889 7.85889 6.38889C7.67444 6.13556 7.36222 6.03889 7.17333 6.00222C7.25036 5.89609 7.35171 5.80998 7.46889 5.75111C7.81222 5.58 8.43111 5.55556 9.04667 5.55556H9.38889C10.0567 5.56444 10.23 5.60778 10.4711 5.66889C10.9589 5.78556 10.9689 6.10222 10.9256 7.18C10.9133 7.48667 10.9 7.83444 10.9 8.24222C10.9 8.33 10.8967 8.42667 10.8967 8.52667C10.8811 9.07778 10.8633 9.70111 11.2522 9.95667C11.3026 9.98816 11.3606 10.0051 11.42 10.0056C11.5556 10.0056 11.9611 10.0056 13.06 8.12C13.5433 7.28778 13.9156 6.30556 13.9411 6.23222C13.9799 6.15294 14.0361 6.08343 14.1056 6.02889C14.1625 5.99933 14.2259 5.98443 14.29 5.98556H16.9289C17.2178 5.98556 17.4133 6.02889 17.45 6.13889C17.5133 6.31556 17.4378 6.85444 16.2322 8.48333L15.6956 9.19444C14.6022 10.6256 14.6022 10.6989 15.76 11.7856Z" fill="#5181B8"/>
</svg>
