<svg width="30" height="30" viewBox="0 0 30 30" fill="none" xmlns="http://www.w3.org/2000/svg">
<path d="M30 26.6667V3.33333C30 1.5 28.495 0 26.6583 0H3.34167C1.425 0 0 1.42167 0 3.33333V26.6667C0 28.58 1.425 30 3.34167 30H26.6583C27.5428 29.9987 28.3907 29.6473 29.0169 29.0227C29.643 28.3981 29.9965 27.5511 30 26.6667ZM23.64 17.6783C23.64 17.6783 25.5267 19.54 25.9917 20.4033C26.005 20.4217 26.01 20.4383 26.015 20.445C26.2033 20.7617 26.2517 21.0117 26.1567 21.195C26 21.5 25.4667 21.6533 25.285 21.6667H21.9533C21.72 21.6667 21.2367 21.6067 20.65 21.2017C20.2 20.8883 19.755 20.37 19.3217 19.865C18.675 19.115 18.115 18.465 17.5517 18.465C17.4802 18.4648 17.4092 18.4767 17.3417 18.5C16.9133 18.6367 16.37 19.245 16.37 20.87C16.37 21.3783 15.97 21.6683 15.6867 21.6683H14.16C13.64 21.6683 10.9317 21.4867 8.53333 18.955C5.59 15.855 2.94667 9.63667 2.92333 9.58167C2.75667 9.18 3.10167 8.96167 3.47667 8.96167H6.84333C7.295 8.96167 7.44 9.235 7.54333 9.48C7.66 9.75833 8.1 10.8817 8.82 12.145C9.99167 14.2 10.7133 15.0367 11.2883 15.0367C11.3958 15.0361 11.5014 15.0079 11.595 14.955C12.3467 14.54 12.2067 11.86 12.1733 11.3067C12.1733 11.2017 12.1717 10.1083 11.7883 9.58333C11.5117 9.20333 11.0433 9.05833 10.76 9.00333C10.8755 8.84413 11.0276 8.71497 11.2033 8.62667C11.7183 8.37 12.6467 8.33333 13.57 8.33333H14.0833C15.085 8.34667 15.345 8.41167 15.7067 8.50333C16.4383 8.67833 16.4533 9.15333 16.3883 10.77C16.37 11.23 16.35 11.7517 16.35 12.3633C16.35 12.495 16.345 12.64 16.345 12.79C16.3217 13.6167 16.295 14.5517 16.8783 14.935C16.9538 14.9822 17.0409 15.0076 17.13 15.0083C17.3333 15.0083 17.9417 15.0083 19.59 12.18C20.315 10.9317 20.8733 9.45833 20.9117 9.34833C20.9699 9.2294 21.0542 9.12515 21.1583 9.04333C21.2437 8.99899 21.3388 8.97665 21.435 8.97833H25.3933C25.8267 8.97833 26.12 9.04333 26.175 9.20833C26.27 9.47333 26.1567 10.2817 24.3483 12.725L23.5433 13.7917C21.9033 15.9383 21.9033 16.0483 23.64 17.6783Z" fill="white"/>
</svg>