<svg width="30" height="31" viewBox="0 0 30 31" fill="none" xmlns="http://www.w3.org/2000/svg">
<path fill-rule="evenodd" clip-rule="evenodd" d="M21.8735 18.5768C21.4992 18.3843 19.6642 17.4569 19.3225 17.3277C18.9809 17.1999 18.7322 17.1366 18.4823 17.5215C18.2336 17.9038 17.5189 18.7692 17.3016 19.025C17.0831 19.282 16.8658 19.313 16.4927 19.1219C16.1197 18.9281 14.9164 18.5238 13.4909 17.2167C12.3818 16.1988 11.632 14.942 11.4147 14.5571C11.1974 14.1735 11.3908 13.9655 11.578 13.7744C11.7463 13.6026 11.951 13.3262 12.1381 13.1027C12.3253 12.8779 12.3868 12.7178 12.5112 12.4607C12.6368 12.205 12.574 11.9815 12.4798 11.7891C12.3868 11.5966 11.6408 9.70691 11.3293 8.93837C11.0266 8.1905 10.7188 8.29254 10.4902 8.27962C10.2717 8.26929 10.023 8.26671 9.77431 8.26671C9.52562 8.26671 9.12118 8.36229 8.77955 8.7472C8.43666 9.13083 7.47329 10.0595 7.47329 11.9492C7.47329 13.8377 8.80969 15.6628 8.99684 15.9198C9.18398 16.1756 11.6282 20.0531 15.3724 21.7155C16.2641 22.1108 16.9587 22.3471 17.5001 22.5228C18.3943 22.816 19.2082 22.7747 19.8513 22.6752C20.5673 22.5654 22.0594 21.7465 22.3709 20.8501C22.6811 19.9537 22.6811 19.1851 22.5882 19.025C22.4952 18.8648 22.2465 18.7692 21.8723 18.5768H21.8735ZM15.0634 28.139H15.0584C12.8345 28.1394 10.6515 27.5246 8.7381 26.359L8.28593 26.0826L3.58592 27.351L4.84068 22.6391L4.54552 22.156C3.30224 20.1208 2.64428 17.7653 2.64768 15.3618C2.65019 8.32225 8.21936 2.59501 15.0684 2.59501C18.3843 2.59501 21.5017 3.92542 23.8455 6.33825C25.0015 7.52216 25.9177 8.93006 26.5412 10.4805C27.1647 12.0309 27.4831 13.6931 27.4778 15.3709C27.4753 22.4104 21.9062 28.139 15.0634 28.139ZM25.629 4.50538C24.2451 3.07282 22.5985 1.93695 20.7847 1.16358C18.9708 0.390218 17.0257 -0.00526514 15.0621 5.29293e-05C6.83021 5.29293e-05 0.128114 6.89108 0.125602 15.3605C0.124346 18.0679 0.811386 20.7106 2.1189 23.0395L0 31L7.91792 28.8636C10.1083 30.0908 12.5628 30.7339 15.0571 30.7339H15.0634C23.2953 30.7339 29.9974 23.8429 29.9999 15.3722C30.006 13.3536 29.6228 11.3539 28.8726 9.48866C28.1223 7.62341 27.0199 5.92966 25.629 4.50538Z" fill="#3DC23A"/>
</svg>
